<?xml version="1.0" encoding="UTF-8"?>
<svg width="230mm" height="42.723mm" version="1.1" viewBox="0 0 230 42.723" xmlns="http://www.w3.org/2000/svg"><g transform="translate(-302.8 -93.413)"><g><rect x="402.28" y="93.413" width="31" height="7.447" ry="2.2035" fill="#5d536c"/><g font-family="sans-serif" font-size="3.5278px" stroke-width=".13054"><text x="404.78116" y="98.41497" fill="#ffffff" style="line-height:1.25" xml:space="preserve"><tspan x="404.78116" y="98.41497" fill="#ffffff" font-family="'Fira Code'" font-size="3.5278px" stroke-width=".13054">djht:Account</tspan></text><text x="382.26053" y="108.37272" fill="#000000" style="line-height:1.25" xml:space="preserve"><tspan x="382.26053" y="108.37272" font-family="'Fira Code'" font-size="3.5278px" stroke-width=".13054">djht:categories</tspan></text><text x="421.41943" y="108.37299" fill="#000000" style="line-height:1.25" xml:space="preserve"><tspan x="421.41943" y="108.37299" font-family="'Fira Code'" font-size="3.5278px" stroke-width=".13054">djht:id</tspan></text></g></g><g stroke="#000" stroke-linecap="round"><path d="m417.07 103.07v8.1683l-36.007-0.0417" fill="none" stroke-width=".5"/><path transform="matrix(.549 .12832 -.1471 .47889 242.03 53.418)" d="m267.07 52.47c-0.22761 0.22761-6.1352-1.3553-6.2185-1.6662-0.0833-0.31092 4.2413-4.6356 4.5522-4.5522 0.31092 0.08331 1.8938 5.9909 1.6662 6.2185z" fill="#fff" stroke-linejoin="round" stroke-width=".75353"/><path transform="matrix(.549 .12832 -.1471 .47889 238.32 53.418)" d="m267.07 52.47c-0.22761 0.22761-6.1352-1.3553-6.2185-1.6662-0.0833-0.31092 4.2413-4.6356 4.5522-4.5522 0.31092 0.08331 1.8938 5.9909 1.6662 6.2185z" fill="#fff" stroke-linejoin="round" stroke-width=".75353"/><path d="m418.55 103.07v8.1683l39.903-0.0417" fill="none" stroke-width=".5"/><path transform="matrix(-.549 .12832 .1471 .47889 597.24 53.378)" d="m267.07 52.47c-0.22761 0.22761-6.1352-1.3553-6.2185-1.6662-0.0833-0.31092 4.2413-4.6356 4.5522-4.5522 0.31092 0.08331 1.8938 5.9909 1.6662 6.2185z" fill="#fff" stroke-linejoin="round" stroke-width=".75353"/></g><text x="421.41943" y="129.53966" fill="#000000" font-family="sans-serif" font-size="3.5278px" stroke-width=".13054" style="line-height:1.25" xml:space="preserve"><tspan x="421.41943" y="129.53966" font-family="'Fira Code'" font-size="3.5278px" stroke-width=".13054">djht:first_name</tspan></text><path d="m418.55 124.24v8.1683l39.903-0.0417" fill="none" stroke="#000" stroke-linecap="round" stroke-width=".5"/><path transform="matrix(-.549 .12832 .1471 .47889 597.24 74.545)" d="m267.07 52.47c-0.22761 0.22761-6.1352-1.3553-6.2185-1.6662-0.0833-0.31092 4.2413-4.6356 4.5522-4.5522 0.31092 0.08331 1.8938 5.9909 1.6662 6.2185z" fill="#fff" stroke="#000" stroke-linecap="round" stroke-linejoin="round" stroke-width=".75353"/><text x="421.41943" y="118.95633" fill="#000000" font-family="sans-serif" font-size="3.5278px" stroke-width=".13054" style="line-height:1.25" xml:space="preserve"><tspan x="421.41943" y="118.95633" font-family="'Fira Code'" font-size="3.5278px" stroke-width=".13054">djht:email</tspan></text><path d="m418.55 113.66v8.1683l39.903-0.0417" fill="none" stroke="#000" stroke-linecap="round" stroke-width=".5"/><path transform="matrix(-.549 .12832 .1471 .47889 597.24 63.962)" d="m267.07 52.47c-0.22761 0.22761-6.1352-1.3553-6.2185-1.6662-0.0833-0.31092 4.2413-4.6356 4.5522-4.5522 0.31092 0.08331 1.8938 5.9909 1.6662 6.2185z" fill="#fff" stroke="#000" stroke-linecap="round" stroke-linejoin="round" stroke-width=".75353"/><text x="384.3555" y="118.95633" fill="#000000" font-family="sans-serif" font-size="3.5278px" stroke-width=".13054" style="line-height:1.25" xml:space="preserve"><tspan x="384.3555" y="118.95633" font-family="'Fira Code'" font-size="3.5278px" stroke-width=".13054">djht:last_name</tspan></text><path d="m417.02 113.66v8.1683l-39.903-0.0417" fill="none" stroke="#000" stroke-linecap="round" stroke-width=".5"/><path transform="matrix(.549 .12832 -.1471 .47889 238.32 63.962)" d="m267.07 52.47c-0.22761 0.22761-6.1352-1.3553-6.2185-1.6662-0.0833-0.31092 4.2413-4.6356 4.5522-4.5522 0.31092 0.08331 1.8938 5.9909 1.6662 6.2185z" fill="#fff" stroke="#000" stroke-linecap="round" stroke-linejoin="round" stroke-width=".75353"/><g><rect x="463.73" y="107.27" width="28.582" height="7.4469" rx="0" ry="0" fill="#005580" stroke="#005580" stroke-linecap="round" stroke-linejoin="round" stroke-width=".5"/><text x="466.33847" y="112.27402" fill="#ffffff" font-family="sans-serif" font-size="3.5278px" stroke-width=".13054" style="line-height:1.25" xml:space="preserve"><tspan x="466.33847" y="112.27402" fill="#ffffff" font-family="'Fira Code'" font-size="3.5278px" stroke-width=".13054">xsd:integer</tspan></text><rect x="463.73" y="117.86" width="27" height="7.4469" rx="0" ry="0" fill="#800015" stroke="#800015" stroke-linecap="round" stroke-linejoin="round" stroke-width=".5"/><text x="466.33847" y="122.85737" fill="#ffffff" font-family="sans-serif" font-size="3.5278px" stroke-width=".13054" style="line-height:1.25" xml:space="preserve"><tspan x="466.33847" y="122.85737" fill="#ffffff" font-family="'Fira Code'" font-size="3.5278px" stroke-width=".13054">xsd:string</tspan></text><rect x="463.73" y="128.44" width="27" height="7.4469" rx="0" ry="0" fill="#800015" stroke="#800015" stroke-linecap="round" stroke-linejoin="round" stroke-width=".5"/><text x="466.33847" y="133.4407" fill="#ffffff" font-family="sans-serif" font-size="3.5278px" stroke-width=".13054" style="line-height:1.25" xml:space="preserve"><tspan x="466.33847" y="133.4407" fill="#ffffff" font-family="'Fira Code'" font-size="3.5278px" stroke-width=".13054">xsd:string</tspan></text><rect x="344.13" y="117.86" width="27" height="7.4469" rx="0" ry="0" fill="#800015" stroke="#800015" stroke-linecap="round" stroke-linejoin="round" stroke-width=".5"/><text x="346.74695" y="122.85735" fill="#ffffff" font-family="sans-serif" font-size="3.5278px" stroke-width=".13054" style="line-height:1.25" xml:space="preserve"><tspan x="346.74695" y="122.85735" fill="#ffffff" font-family="'Fira Code'" font-size="3.5278px" stroke-width=".13054">xsd:string</tspan></text><rect x="338.06" y="107.27" width="33.25" height="7.4469" ry="2.2035" fill="#007580"/><text x="340.67609" y="112.27402" fill="#ffffff" font-family="sans-serif" font-size="3.5278px" stroke-width=".13054" style="line-height:1.25" xml:space="preserve"><tspan x="340.67609" y="112.27402" fill="#ffffff" font-family="'Fira Code'" font-size="3.5278px" stroke-width=".13054">djht:Category</tspan></text></g></g></svg>
