<?xml version="1.0" encoding="UTF-8"?>
<svg width="230mm" height="53.056mm" version="1.1" viewBox="0 0 230 53.056" xmlns="http://www.w3.org/2000/svg"><g transform="translate(-342.8 -93.413)"><text x="428.74829" y="108.37272" fill="#000000" font-family="sans-serif" font-size="3.5278px" stroke-width=".13054" style="line-height:1.25" xml:space="preserve"><tspan x="428.74829" y="108.37272" font-family="'Fira Code'" font-size="3.5278px" stroke-width=".13054">djht:account</tspan></text><text x="461.45587" y="129.53966" fill="#000000" font-family="sans-serif" font-size="3.5278px" stroke-width=".13054" style="line-height:1.25" xml:space="preserve"><tspan x="461.45587" y="129.53966" font-family="'Fira Code'" font-size="3.5278px" stroke-width=".13054">djht:orcid_id</tspan></text><path d="m458.58 124.24v8.1683l39.903-0.0417" fill="none" stroke="#000" stroke-linecap="round" stroke-width=".5"/><path transform="matrix(-.549 .12832 .1471 .47889 637.28 74.545)" d="m267.07 52.47c-0.22761 0.22761-6.1352-1.3553-6.2185-1.6662-0.0833-0.31092 4.2413-4.6356 4.5522-4.5522 0.31092 0.08331 1.8938 5.9909 1.6662 6.2185z" fill="#fff" stroke="#000" stroke-linecap="round" stroke-linejoin="round" stroke-width=".75353"/><text x="461.45587" y="118.95633" fill="#000000" font-family="sans-serif" font-size="3.5278px" stroke-width=".13054" style="line-height:1.25" xml:space="preserve"><tspan x="461.45587" y="118.95633" font-family="'Fira Code'" font-size="3.5278px" stroke-width=".13054">djht:email</tspan></text><path d="m458.58 113.66v8.1683l39.903-0.0417" fill="none" stroke="#000" stroke-linecap="round" stroke-width=".5"/><path transform="matrix(-.549 .12832 .1471 .47889 637.28 63.962)" d="m267.07 52.47c-0.22761 0.22761-6.1352-1.3553-6.2185-1.6662-0.0833-0.31092 4.2413-4.6356 4.5522-4.5522 0.31092 0.08331 1.8938 5.9909 1.6662 6.2185z" fill="#fff" stroke="#000" stroke-linecap="round" stroke-linejoin="round" stroke-width=".75353"/><text x="422.22098" y="118.95633" fill="#000000" font-family="sans-serif" font-size="3.5278px" stroke-width=".13054" style="line-height:1.25" xml:space="preserve"><tspan x="422.22098" y="118.95633" font-family="'Fira Code'" font-size="3.5278px" stroke-width=".13054">djht:first_name</tspan></text><g stroke="#000" stroke-linecap="round"><path d="m457.05 113.66v8.1683l-39.903-0.0417" fill="none" stroke-width=".5"/><path d="m457.1 103.07v8.1683l-39.903-0.0417" fill="none" stroke-width=".5"/><path transform="matrix(.549 .12832 -.1471 .47889 278.36 53.418)" d="m267.07 52.47c-0.22761 0.22761-6.1352-1.3553-6.2185-1.6662-0.0833-0.31092 4.2413-4.6356 4.5522-4.5522 0.31092 0.08331 1.8938 5.9909 1.6662 6.2185z" fill="#fff" stroke-linejoin="round" stroke-width=".75353"/><path transform="matrix(.549 .12832 -.1471 .47889 278.36 63.962)" d="m267.07 52.47c-0.22761 0.22761-6.1352-1.3553-6.2185-1.6662-0.0833-0.31092 4.2413-4.6356 4.5522-4.5522 0.31092 0.08331 1.8938 5.9909 1.6662 6.2185z" fill="#fff" stroke-linejoin="round" stroke-width=".75353"/></g><g><rect x="503.76" y="117.86" width="27" height="7.4469" rx="0" ry="0" fill="#800015" stroke="#800015" stroke-linecap="round" stroke-linejoin="round" stroke-width=".5"/><text x="506.37491" y="122.85737" fill="#ffffff" font-family="sans-serif" font-size="3.5278px" stroke-width=".13054" style="line-height:1.25" xml:space="preserve"><tspan x="506.37491" y="122.85737" fill="#ffffff" font-family="'Fira Code'" font-size="3.5278px" stroke-width=".13054">xsd:string</tspan></text><rect x="503.76" y="128.44" width="27" height="7.4469" rx="0" ry="0" fill="#800015" stroke="#800015" stroke-linecap="round" stroke-linejoin="round" stroke-width=".5"/><text x="506.37491" y="133.4407" fill="#ffffff" font-family="sans-serif" font-size="3.5278px" stroke-width=".13054" style="line-height:1.25" xml:space="preserve"><tspan x="506.37491" y="133.4407" fill="#ffffff" font-family="'Fira Code'" font-size="3.5278px" stroke-width=".13054">xsd:string</tspan></text><rect x="384.17" y="117.86" width="27" height="7.4469" rx="0" ry="0" fill="#800015" stroke="#800015" stroke-linecap="round" stroke-linejoin="round" stroke-width=".5"/><text x="386.78339" y="122.85735" fill="#ffffff" font-family="sans-serif" font-size="3.5278px" stroke-width=".13054" style="line-height:1.25" xml:space="preserve"><tspan x="386.78339" y="122.85735" fill="#ffffff" font-family="'Fira Code'" font-size="3.5278px" stroke-width=".13054">xsd:string</tspan></text><text x="424.39194" y="129.53966" fill="#000000" font-family="sans-serif" font-size="3.5278px" stroke-width=".13054" style="line-height:1.25" xml:space="preserve"><tspan x="424.39194" y="129.53966" font-family="'Fira Code'" font-size="3.5278px" stroke-width=".13054">djht:last_name</tspan></text></g><path d="m457.05 124.24v8.1683l-39.903-0.0417" fill="none" stroke="#000" stroke-linecap="round" stroke-width=".5"/><path transform="matrix(.549 .12832 -.1471 .47889 278.36 74.545)" d="m267.07 52.47c-0.22761 0.22761-6.1352-1.3553-6.2185-1.6662-0.0833-0.31092 4.2413-4.6356 4.5522-4.5522 0.31092 0.08331 1.8938 5.9909 1.6662 6.2185z" fill="#fff" stroke="#000" stroke-linecap="round" stroke-linejoin="round" stroke-width=".75353"/><g><rect x="384.17" y="128.44" width="27" height="7.4469" rx="0" ry="0" fill="#800015" stroke="#800015" stroke-linecap="round" stroke-linejoin="round" stroke-width=".5"/><text x="386.78339" y="133.44069" fill="#ffffff" font-family="sans-serif" font-size="3.5278px" stroke-width=".13054" style="line-height:1.25" xml:space="preserve"><tspan x="386.78339" y="133.44069" fill="#ffffff" font-family="'Fira Code'" font-size="3.5278px" stroke-width=".13054">xsd:string</tspan></text><rect x="443.32" y="93.413" width="29" height="7.4469" ry="2.2035" fill="#608000"/><text x="445.93085" y="98.415001" fill="#ffffff" font-family="sans-serif" font-size="3.5278px" stroke-width=".13054" style="line-height:1.25" xml:space="preserve"><tspan x="445.93085" y="98.415001" fill="#ffffff" font-family="'Fira Code'" font-size="3.5278px" stroke-width=".13054">djht:Author</tspan></text></g><g transform="translate(38.605 10.089)"><rect x="341.75" y="97.184" width="31" height="7.447" ry="2.2035" fill="#5d536c"/><text x="344.24393" y="102.18529" fill="#ffffff" font-family="sans-serif" font-size="3.5278px" stroke-width=".13054" style="line-height:1.25" xml:space="preserve"><tspan x="344.24393" y="102.18529" fill="#ffffff" font-family="'Fira Code'" font-size="3.5278px" stroke-width=".13054">djht:Account</tspan></text></g><text x="461.45587" y="140.123" fill="#000000" font-family="sans-serif" font-size="3.5278px" stroke-width=".13054" style="line-height:1.25" xml:space="preserve"><tspan x="461.45587" y="140.123" font-family="'Fira Code'" font-size="3.5278px" stroke-width=".13054">djht:created_by</tspan></text><path d="m458.58 134.82v8.1683l39.903-0.0417" fill="none" stroke="#000" stroke-linecap="round" stroke-width=".5"/><path transform="matrix(-.549 .12832 .1471 .47889 637.28 85.128)" d="m267.07 52.47c-0.22761 0.22761-6.1352-1.3553-6.2185-1.6662-0.0833-0.31092 4.2413-4.6356 4.5522-4.5522 0.31092 0.08331 1.8938 5.9909 1.6662 6.2185z" fill="#fff" stroke="#000" stroke-linecap="round" stroke-linejoin="round" stroke-width=".75353"/><g><rect x="503.51" y="139.02" width="31" height="7.447" ry="2.2035" fill="#5d536c"/><text x="506.01166" y="144.02399" fill="#ffffff" font-family="sans-serif" font-size="3.5278px" stroke-width=".13054" style="line-height:1.25" xml:space="preserve"><tspan x="506.01166" y="144.02399" fill="#ffffff" font-family="'Fira Code'" font-size="3.5278px" stroke-width=".13054">djht:Account</tspan></text><rect x="380.35" y="107.27" width="31" height="7.447" ry="2.2035" fill="#5d536c"/><text x="382.84927" y="112.27401" fill="#ffffff" font-family="sans-serif" font-size="3.5278px" stroke-width=".13054" style="line-height:1.25" xml:space="preserve"><tspan x="382.84927" y="112.27401" fill="#ffffff" font-family="'Fira Code'" font-size="3.5278px" stroke-width=".13054">djht:Account</tspan></text><text x="461.4559" y="108.37299" fill="#000000" font-family="sans-serif" font-size="3.5278px" stroke-width=".13054" style="line-height:1.25" xml:space="preserve"><tspan x="461.4559" y="108.37299" font-family="'Fira Code'" font-size="3.5278px" stroke-width=".13054">djht:id</tspan></text></g><g stroke-linecap="round"><path d="m458.58 103.07v8.1683l39.903-0.0417" fill="none" stroke="#000" stroke-width=".5"/><path transform="matrix(-.549 .12832 .1471 .47889 637.28 53.378)" d="m267.07 52.47c-0.22761 0.22761-6.1352-1.3553-6.2185-1.6662-0.0833-0.31092 4.2413-4.6356 4.5522-4.5522 0.31092 0.08331 1.8938 5.9909 1.6662 6.2185z" fill="#fff" stroke="#000" stroke-linejoin="round" stroke-width=".75353"/><rect x="503.76" y="107.27" width="28.582" height="7.4469" rx="0" ry="0" fill="#005580" stroke="#005580" stroke-linejoin="round" stroke-width=".5"/></g><text x="506.37494" y="112.27401" fill="#ffffff" font-family="sans-serif" font-size="3.5278px" stroke-width=".13054" style="line-height:1.25" xml:space="preserve"><tspan x="506.37494" y="112.27401" fill="#ffffff" font-family="'Fira Code'" font-size="3.5278px" stroke-width=".13054">xsd:integer</tspan></text></g></svg>
