<?xml version="1.0" encoding="UTF-8"?>
<svg width="230mm" height="32.139mm" version="1.1" viewBox="0 0 230 32.139" xmlns="http://www.w3.org/2000/svg" font-family="'Fira Code', monospace" font-size="3.5278px"><g transform="translate(-346.37 -93.413)"><text x="464.99008" y="108.37299" fill="#000" stroke-width=".13054" style="line-height:1.25" xml:space="preserve"><tspan x="464.99008" y="108.37299" stroke-width=".13054">djht:id</tspan></text><path d="m462.12 103.07v8.1683l39.903-0.0417" fill="none" stroke="#000" stroke-linecap="round" stroke-width=".5"/><path transform="matrix(-.549 .12832 .1471 .47889 640.81 53.378)" d="m267.07 52.47c-0.22761 0.22761-6.1352-1.3553-6.2185-1.6662-0.0833-0.31092 4.2413-4.6356 4.5522-4.5522 0.31092 0.08331 1.8938 5.9909 1.6662 6.2185z" fill="#fff" stroke="#000" stroke-linecap="round" stroke-linejoin="round" stroke-width=".75353"/><text x="464.99008" y="118.95633" fill="#000" stroke-width=".13054" style="line-height:1.25" xml:space="preserve"><tspan x="464.99008" y="118.95633" stroke-width=".13054">djht:parent_id</tspan></text><path d="m462.12 113.66v8.1683l39.903-0.0417" fill="none" stroke="#000" stroke-linecap="round" stroke-width=".5"/><path transform="matrix(-.549 .12832 .1471 .47889 640.81 63.962)" d="m267.07 52.47c-0.22761 0.22761-6.1352-1.3553-6.2185-1.6662-0.0833-0.31092 4.2413-4.6356 4.5522-4.5522 0.31092 0.08331 1.8938 5.9909 1.6662 6.2185z" fill="#fff" stroke="#000" stroke-linecap="round" stroke-linejoin="round" stroke-width=".75353"/><g><rect x="507.3" y="107.27" width="28.582" height="7.4469" rx="0" ry="0" fill="#005580" stroke="#005580" stroke-linecap="round" stroke-linejoin="round" stroke-width=".5"/><text x="509.90912" y="112.27402" fill="#fff" stroke-width=".13054" style="line-height:1.25" xml:space="preserve"><tspan x="509.90912" y="112.27402" fill="#fff" stroke-width=".13054">xsd:integer</tspan></text><text x="436.60992" y="108.373" fill="#000" stroke-width=".13054" style="line-height:1.25" xml:space="preserve"><tspan x="436.60992" y="108.373" stroke-width=".13054">djht:title</tspan></text></g><path d="m460.59 103.07v8.1683l-39.903-0.0417" fill="none" stroke="#000" stroke-linecap="round" stroke-width=".5"/><path transform="matrix(.549 .12832 -.1471 .47889 281.9 53.378)" d="m267.07 52.47c-0.22761 0.22761-6.1352-1.3553-6.2185-1.6662-0.0833-0.31092 4.2413-4.6356 4.5522-4.5522 0.31092 0.08331 1.8938 5.9909 1.6662 6.2185z" fill="#fff" stroke="#000" stroke-linecap="round" stroke-linejoin="round" stroke-width=".75353"/><g><rect x="387.71" y="107.27" width="27" height="7.4469" rx="0" ry="0" fill="#800015" stroke="#800015" stroke-linecap="round" stroke-linejoin="round" stroke-width=".5"/><text x="390.3176" y="112.27402" fill="#fff" stroke-width=".13054" style="line-height:1.25" xml:space="preserve"><tspan x="390.3176" y="112.27402" fill="#fff" stroke-width=".13054">xsd:string</tspan></text><rect x="444.73" y="93.413" width="33.25" height="7.4469" ry="2.2035" fill="#007580"/><text x="447.34006" y="98.415009" fill="#fff" stroke-width=".13054" style="line-height:1.25" xml:space="preserve"><tspan x="447.34006" y="98.415009" fill="#fff" stroke-width=".13054">djht:Category</tspan></text><rect x="507.3" y="117.86" width="28.582" height="7.4469" rx="0" ry="0" fill="#005580" stroke="#005580" stroke-linecap="round" stroke-linejoin="round" stroke-width=".5"/><text x="509.90912" y="122.85735" fill="#fff" stroke-width=".13054" style="line-height:1.25" xml:space="preserve"><tspan x="509.90912" y="122.85735" fill="#fff" stroke-width=".13054">xsd:integer</tspan></text></g></g></svg>
