<?xml version="1.0" encoding="UTF-8"?>
<svg width="230mm" height="78.852mm" version="1.1" viewBox="0 0 230 78.852" xmlns="http://www.w3.org/2000/svg"><g transform="translate(-79.057 -89.145)"><text x="197.7347" y="104.22951" fill="#000000" font-family="sans-serif" font-size="3.5278px" stroke-width=".13054" style="line-height:1.25" xml:space="preserve"><tspan x="197.7347" y="104.22951" font-family="'Fira Code'" font-size="3.5278px" stroke-width=".13054">djht:authors</tspan></text><text x="146.6712" y="91.941956" fill="#000000" font-family="sans-serif" font-size="3.5278px" stroke-width=".13054" style="line-height:1.25" xml:space="preserve"><tspan x="146.6712" y="91.941956" font-family="'Fira Code'" font-size="3.5278px" stroke-width=".13054">djht:draft</tspan></text><path transform="matrix(-.549 .12832 .1471 .47889 308.96 36.142)" d="m267.07 52.47c-0.22761 0.22761-6.1352-1.3553-6.2185-1.6662-0.0833-0.31092 4.2413-4.6356 4.5522-4.5522 0.31092 0.08331 1.8938 5.9909 1.6662 6.2185z" stroke="#000" stroke-linecap="round" stroke-linejoin="round" stroke-width=".75353"/><path d="m144.91 93.935h24.999" fill="none" stroke="#000" stroke-linecap="round" stroke-width=".5"/><text x="197.7347" y="113.75451" fill="#000000" font-family="sans-serif" font-size="3.5278px" stroke-width=".13054" style="line-height:1.25" xml:space="preserve"><tspan x="197.7347" y="113.75451" font-family="'Fira Code'" font-size="3.5278px" stroke-width=".13054">djht:categories</tspan></text><path d="m194.86 108.46v8.1683l43.918-0.0417" fill="none" stroke="#000" stroke-linecap="round" stroke-width=".5"/><text transform="matrix(.26458 0 0 .26458 100.18 88.743)" fill="#000000" font-family="sans-serif" font-size="40px" style="line-height:1.25;shape-inside:url(#rect16279);white-space:pre" xml:space="preserve"/><text x="197.7347" y="123.27953" fill="#000000" font-family="sans-serif" font-size="3.5278px" stroke-width=".13054" style="line-height:1.25" xml:space="preserve"><tspan x="197.7347" y="123.27953" font-family="'Fira Code'" font-size="3.5278px" stroke-width=".13054">djht:datasets</tspan></text><path d="m194.86 117.98v8.1683l43.918-0.0417" fill="none" stroke="#000" stroke-linecap="round" stroke-width=".5"/><path d="m194.86 127.51v8.1683l43.918-0.0417" fill="none" stroke="#000" stroke-linecap="round" stroke-width=".5"/><text x="197.7347" y="132.80453" fill="#000000" font-family="sans-serif" font-size="3.5278px" stroke-width=".13054" style="line-height:1.25" xml:space="preserve"><tspan x="197.7347" y="132.80453" font-family="'Fira Code'" font-size="3.5278px" stroke-width=".13054">djht:funding</tspan></text><path d="m194.86 137.03v8.1683l43.918-0.0417" fill="none" stroke="#000" stroke-linecap="round" stroke-width=".5"/><text x="197.7347" y="142.32956" fill="#000000" font-family="sans-serif" font-size="3.5278px" stroke-width=".13054" style="line-height:1.25" xml:space="preserve"><tspan x="197.7347" y="142.32956" font-family="'Fira Code'" font-size="3.5278px" stroke-width=".13054">djht:private_links</tspan></text><path d="m194.86 146.56v8.1683l43.918-0.0417" fill="none" stroke="#000" stroke-linecap="round" stroke-width=".5"/><text x="197.7347" y="151.85458" fill="#000000" font-family="sans-serif" font-size="3.5278px" stroke-width=".13054" style="line-height:1.25" xml:space="preserve"><tspan x="197.7347" y="151.85458" font-family="'Fira Code'" font-size="3.5278px" stroke-width=".13054">djht:references</tspan></text><path d="m194.86 156.08v8.1683l43.918-0.0417" fill="none" stroke="#000" stroke-linecap="round" stroke-width=".5"/><text x="197.7347" y="161.37961" fill="#000000" font-family="sans-serif" font-size="3.5278px" stroke-width=".13054" style="line-height:1.25" xml:space="preserve"><tspan x="197.7347" y="161.37961" font-family="'Fira Code'" font-size="3.5278px" stroke-width=".13054">djht:tags</tspan></text><text x="171.27638" y="104.22951" fill="#000000" font-family="sans-serif" font-size="3.5278px" stroke-width=".13054" style="line-height:1.25" xml:space="preserve"><tspan x="171.27638" y="104.22951" font-family="'Fira Code'" font-size="3.5278px" stroke-width=".13054">djht:uuid</tspan></text><g stroke="#000" stroke-linecap="round"><path transform="matrix(.549 .12832 -.1471 .47889 10.403 49.235)" d="m267.07 52.47c-0.22761 0.22761-6.1352-1.3553-6.2185-1.6662-0.0833-0.31092 4.2413-4.6356 4.5522-4.5522 0.31092 0.08331 1.8938 5.9909 1.6662 6.2185z" fill="#fff" stroke-linejoin="round" stroke-width=".75353"/><path d="m194.86 98.93v8.1683l43.918-0.0417" fill="none" stroke-width=".5"/><path d="m193.33 98.93v8.1683l-43.918-0.0417" fill="none" stroke-width=".5"/></g><text x="162.589" y="113.75449" fill="#000000" font-family="sans-serif" font-size="3.5278px" stroke-width=".13054" style="line-height:1.25" xml:space="preserve"><tspan x="162.589" y="113.75449" font-family="'Fira Code'" font-size="3.5278px" stroke-width=".13054">djht:citation</tspan></text><path d="m193.33 108.46v8.1683l-43.918-0.0417" fill="none" stroke="#000" stroke-linecap="round" stroke-width=".5"/><text x="164.68034" y="123.27951" fill="#000000" font-family="sans-serif" font-size="3.5278px" stroke-width=".13054" style="line-height:1.25" xml:space="preserve"><tspan x="164.68034" y="123.27951" font-family="'Fira Code'" font-size="3.5278px" stroke-width=".13054">created_date</tspan></text><path d="m193.33 117.98v8.1683l-43.918-0.0417" fill="none" stroke="#000" stroke-linecap="round" stroke-width=".5"/><text x="173.38943" y="132.80452" fill="#000000" font-family="sans-serif" font-size="3.5278px" stroke-width=".13054" style="line-height:1.25" xml:space="preserve"><tspan x="173.38943" y="132.80452" font-family="'Fira Code'" font-size="3.5278px" stroke-width=".13054">djht:doi</tspan></text><path d="m193.33 127.51v8.1683l-43.918-0.0417" fill="none" stroke="#000" stroke-linecap="round" stroke-width=".5"/><text x="156.07617" y="142.32951" fill="#000000" font-family="sans-serif" font-size="3.5278px" stroke-width=".13054" style="line-height:1.25" xml:space="preserve"><tspan x="156.07617" y="142.32951" font-family="'Fira Code'" font-size="3.5278px" stroke-width=".13054">djht:description</tspan></text><path d="m193.33 137.03v8.1683l-43.918-0.0417" fill="none" stroke="#000" stroke-linecap="round" stroke-width=".5"/><rect x="131.57" y="131.72" width="12.114" height="7.4469" ry="2.2035" fill="#f2f2f2" stroke="#4d4d4d" stroke-linecap="round" stroke-linejoin="round" stroke-width=".5"/><text x="134.265" y="136.72351" fill="#000000" font-family="sans-serif" font-size="3.5278px" stroke-width=".13054" style="line-height:1.25" xml:space="preserve"><tspan x="134.265" y="136.72351" font-family="'Fira Code'" font-size="3.5278px" stroke-width=".13054">...</tspan></text><text x="169.02223" y="151.85454" fill="#000000" font-family="sans-serif" font-size="3.5278px" stroke-width=".13054" style="line-height:1.25" xml:space="preserve"><tspan x="169.02223" y="151.85454" font-family="'Fira Code'" font-size="3.5278px" stroke-width=".13054">djht:title</tspan></text><path d="m193.33 146.56v8.1683l-43.918-0.0417" fill="none" stroke="#000" stroke-linecap="round" stroke-width=".5"/><text x="164.68034" y="161.37959" fill="#000000" font-family="sans-serif" font-size="3.5278px" stroke-width=".13054" style="line-height:1.25" xml:space="preserve"><tspan x="164.68034" y="161.37959" font-family="'Fira Code'" font-size="3.5278px" stroke-width=".13054">djht:license</tspan></text><path d="m193.33 156.08v8.1683l-43.918-0.0417" fill="none" stroke="#000" stroke-linecap="round" stroke-width=".5"/><g><rect x="116.69" y="103.15" width="27" height="7.4469" rx="0" ry="0" fill="#800015" stroke="#800015" stroke-linecap="round" stroke-linejoin="round" stroke-width=".5"/><text x="119.29786" y="108.15164" fill="#ffffff" font-family="sans-serif" font-size="3.5278px" stroke-width=".13054" style="line-height:1.25" xml:space="preserve"><tspan x="119.29786" y="108.15164" fill="#ffffff" font-family="'Fira Code'" font-size="3.5278px" stroke-width=".13054">xsd:string</tspan></text><rect x="116.69" y="112.67" width="27" height="7.4469" rx="0" ry="0" fill="#800015" stroke="#800015" stroke-linecap="round" stroke-linejoin="round" stroke-width=".5"/><text x="119.29786" y="117.67664" fill="#ffffff" font-family="sans-serif" font-size="3.5278px" stroke-width=".13054" style="line-height:1.25" xml:space="preserve"><tspan x="119.29786" y="117.67664" fill="#ffffff" font-family="'Fira Code'" font-size="3.5278px" stroke-width=".13054">xsd:string</tspan></text><rect x="112.69" y="122.2" width="31" height="7.4469" rx="0" ry="0" fill="#800055" stroke="#800055" stroke-linecap="round" stroke-linejoin="round" stroke-width=".5"/><text x="115.29786" y="127.20164" fill="#ffffff" font-family="sans-serif" font-size="3.5278px" stroke-width=".13054" style="line-height:1.25" xml:space="preserve"><tspan x="115.29786" y="127.20164" fill="#ffffff" font-family="'Fira Code'" font-size="3.5278px" stroke-width=".13054">xsd:dateTime</tspan></text><rect x="116.69" y="141.25" width="27" height="7.4469" rx="0" ry="0" fill="#800015" stroke="#800015" stroke-linecap="round" stroke-linejoin="round" stroke-width=".5"/><text x="119.29786" y="146.25165" fill="#ffffff" font-family="sans-serif" font-size="3.5278px" stroke-width=".13054" style="line-height:1.25" xml:space="preserve"><tspan x="119.29786" y="146.25165" fill="#ffffff" font-family="'Fira Code'" font-size="3.5278px" stroke-width=".13054">xsd:string</tspan></text><rect x="116.69" y="150.77" width="27" height="7.4469" rx="0" ry="0" fill="#800015" stroke="#800015" stroke-linecap="round" stroke-linejoin="round" stroke-width=".5"/><text x="119.29786" y="155.77664" fill="#ffffff" font-family="sans-serif" font-size="3.5278px" stroke-width=".13054" style="line-height:1.25" xml:space="preserve"><tspan x="119.29786" y="155.77664" fill="#ffffff" font-family="'Fira Code'" font-size="3.5278px" stroke-width=".13054">xsd:string</tspan></text></g><g stroke="#000" stroke-linecap="round" stroke-linejoin="round" stroke-width=".75353"><path transform="matrix(.549 .12832 -.1471 .47889 10.403 58.76)" d="m267.07 52.47c-0.22761 0.22761-6.1352-1.3553-6.2185-1.6662-0.0833-0.31092 4.2413-4.6356 4.5522-4.5522 0.31092 0.08331 1.8938 5.9909 1.6662 6.2185z" fill="#fff"/><path transform="matrix(.549 .12832 -.1471 .47889 10.403 68.285)" d="m267.07 52.47c-0.22761 0.22761-6.1352-1.3553-6.2185-1.6662-0.0833-0.31092 4.2413-4.6356 4.5522-4.5522 0.31092 0.08331 1.8938 5.9909 1.6662 6.2185z" fill="#fff"/><path transform="matrix(.549 .12832 -.1471 .47889 10.403 77.81)" d="m267.07 52.47c-0.22761 0.22761-6.1352-1.3553-6.2185-1.6662-0.0833-0.31092 4.2413-4.6356 4.5522-4.5522 0.31092 0.08331 1.8938 5.9909 1.6662 6.2185z"/><path transform="matrix(.549 .12832 -.1471 .47889 10.403 87.335)" d="m267.07 52.47c-0.22761 0.22761-6.1352-1.3553-6.2185-1.6662-0.0833-0.31092 4.2413-4.6356 4.5522-4.5522 0.31092 0.08331 1.8938 5.9909 1.6662 6.2185z" fill="#fff"/><path transform="matrix(.549 .12832 -.1471 .47889 10.403 96.86)" d="m267.07 52.47c-0.22761 0.22761-6.1352-1.3553-6.2185-1.6662-0.0833-0.31092 4.2413-4.6356 4.5522-4.5522 0.31092 0.08331 1.8938 5.9909 1.6662 6.2185z" fill="#fff"/><path transform="matrix(.549 .12832 -.1471 .47889 10.403 106.38)" d="m267.07 52.47c-0.22761 0.22761-6.1352-1.3553-6.2185-1.6662-0.0833-0.31092 4.2413-4.6356 4.5522-4.5522 0.31092 0.08331 1.8938 5.9909 1.6662 6.2185z"/></g><g fill="#fff" stroke="#000" stroke-linecap="round" stroke-linejoin="round" stroke-width=".75353"><path transform="matrix(-.549 .12832 .1471 .47889 377.84 58.8)" d="m267.07 52.47c-0.22761 0.22761-6.1352-1.3553-6.2185-1.6662-0.0833-0.31092 4.2413-4.6356 4.5522-4.5522 0.31092 0.08331 1.8938 5.9909 1.6662 6.2185z"/><path transform="matrix(-.549 .12832 .1471 .47889 381.54 58.8)" d="m267.07 52.47c-0.22761 0.22761-6.1352-1.3553-6.2185-1.6662-0.0833-0.31092 4.2413-4.6356 4.5522-4.5522 0.31092 0.08331 1.8938 5.9909 1.6662 6.2185z"/><path transform="matrix(-.549 .12832 .1471 .47889 377.84 49.275)" d="m267.07 52.47c-0.22761 0.22761-6.1352-1.3553-6.2185-1.6662-0.0833-0.31092 4.2413-4.6356 4.5522-4.5522 0.31092 0.08331 1.8938 5.9909 1.6662 6.2185z"/><path transform="matrix(-.549 .12832 .1471 .47889 381.54 49.275)" d="m267.07 52.47c-0.22761 0.22761-6.1352-1.3553-6.2185-1.6662-0.0833-0.31092 4.2413-4.6356 4.5522-4.5522 0.31092 0.08331 1.8938 5.9909 1.6662 6.2185z"/><path transform="matrix(-.549 .12832 .1471 .47889 377.84 68.325)" d="m267.07 52.47c-0.22761 0.22761-6.1352-1.3553-6.2185-1.6662-0.0833-0.31092 4.2413-4.6356 4.5522-4.5522 0.31092 0.08331 1.8938 5.9909 1.6662 6.2185z"/><path transform="matrix(-.549 .12832 .1471 .47889 381.54 68.325)" d="m267.07 52.47c-0.22761 0.22761-6.1352-1.3553-6.2185-1.6662-0.0833-0.31092 4.2413-4.6356 4.5522-4.5522 0.31092 0.08331 1.8938 5.9909 1.6662 6.2185z"/><path transform="matrix(-.549 .12832 .1471 .47889 377.84 77.85)" d="m267.07 52.47c-0.22761 0.22761-6.1352-1.3553-6.2185-1.6662-0.0833-0.31092 4.2413-4.6356 4.5522-4.5522 0.31092 0.08331 1.8938 5.9909 1.6662 6.2185z"/><path transform="matrix(-.549 .12832 .1471 .47889 381.54 77.85)" d="m267.07 52.47c-0.22761 0.22761-6.1352-1.3553-6.2185-1.6662-0.0833-0.31092 4.2413-4.6356 4.5522-4.5522 0.31092 0.08331 1.8938 5.9909 1.6662 6.2185z"/><path transform="matrix(-.549 .12832 .1471 .47889 377.84 87.375)" d="m267.07 52.47c-0.22761 0.22761-6.1352-1.3553-6.2185-1.6662-0.0833-0.31092 4.2413-4.6356 4.5522-4.5522 0.31092 0.08331 1.8938 5.9909 1.6662 6.2185z"/><path transform="matrix(-.549 .12832 .1471 .47889 381.54 87.375)" d="m267.07 52.47c-0.22761 0.22761-6.1352-1.3553-6.2185-1.6662-0.0833-0.31092 4.2413-4.6356 4.5522-4.5522 0.31092 0.08331 1.8938 5.9909 1.6662 6.2185z"/><path transform="matrix(-.549 .12832 .1471 .47889 377.84 96.9)" d="m267.07 52.47c-0.22761 0.22761-6.1352-1.3553-6.2185-1.6662-0.0833-0.31092 4.2413-4.6356 4.5522-4.5522 0.31092 0.08331 1.8938 5.9909 1.6662 6.2185z"/><path transform="matrix(-.549 .12832 .1471 .47889 381.54 96.9)" d="m267.07 52.47c-0.22761 0.22761-6.1352-1.3553-6.2185-1.6662-0.0833-0.31092 4.2413-4.6356 4.5522-4.5522 0.31092 0.08331 1.8938 5.9909 1.6662 6.2185z"/><path transform="matrix(-.549 .12832 .1471 .47889 377.84 106.42)" d="m267.07 52.47c-0.22761 0.22761-6.1352-1.3553-6.2185-1.6662-0.0833-0.31092 4.2413-4.6356 4.5522-4.5522 0.31092 0.08331 1.8938 5.9909 1.6662 6.2185z"/><path transform="matrix(-.549 .12832 .1471 .47889 381.54 106.42)" d="m267.07 52.47c-0.22761 0.22761-6.1352-1.3553-6.2185-1.6662-0.0833-0.31092 4.2413-4.6356 4.5522-4.5522 0.31092 0.08331 1.8938 5.9909 1.6662 6.2185z"/></g><g><rect x="247.88" y="103.15" width="29" height="7.4469" ry="2.2035" fill="#608000"/><text x="250.48875" y="108.15163" fill="#ffffff" font-family="sans-serif" font-size="3.5278px" stroke-width=".13054" style="line-height:1.25" xml:space="preserve"><tspan x="250.48875" y="108.15163" fill="#ffffff" font-family="'Fira Code'" font-size="3.5278px" stroke-width=".13054">djht:Author</tspan></text><rect x="247.88" y="112.67" width="33.25" height="7.4469" ry="2.2035" fill="#007580"/><text x="250.48875" y="117.67664" fill="#ffffff" font-family="sans-serif" font-size="3.5278px" stroke-width=".13054" style="line-height:1.25" xml:space="preserve"><tspan x="250.48875" y="117.67664" fill="#ffffff" font-family="'Fira Code'" font-size="3.5278px" stroke-width=".13054">djht:Category</tspan></text><rect x="247.88" y="131.72" width="30.997" height="7.4469" ry="2.2035" fill="#008020"/><text x="250.48875" y="136.72661" fill="#ffffff" font-family="sans-serif" font-size="3.5278px" stroke-width=".13054" style="line-height:1.25" xml:space="preserve"><tspan x="250.48875" y="136.72661" fill="#ffffff" font-family="'Fira Code'" font-size="3.5278px" stroke-width=".13054">djht:Funding</tspan></text><rect x="247.88" y="141.25" width="39.75" height="7.4469" ry="2.2035" fill="#000080"/><text x="250.48875" y="146.2516" fill="#ffffff" font-family="sans-serif" font-size="3.5278px" stroke-width=".13054" style="line-height:1.25" xml:space="preserve"><tspan x="250.48875" y="146.2516" fill="#ffffff" font-family="'Fira Code'" font-size="3.5278px" stroke-width=".13054">djht:PrivateLink</tspan></text><rect x="248.13" y="160.3" width="27" height="7.4469" rx="0" ry="0" fill="#800015" stroke="#800015" stroke-linecap="round" stroke-linejoin="round" stroke-width=".5"/><text x="250.73875" y="165.30162" fill="#ffffff" font-family="sans-serif" font-size="3.5278px" stroke-width=".13054" style="line-height:1.25" xml:space="preserve"><tspan x="250.73875" y="165.30162" fill="#ffffff" font-family="'Fira Code'" font-size="3.5278px" stroke-width=".13054">xsd:string</tspan></text></g><rect x="131.57" y="160.3" width="12.114" height="7.4469" ry="2.2035" fill="#f2f2f2" stroke="#4d4d4d" stroke-linecap="round" stroke-linejoin="round" stroke-width=".5"/><text x="134.265" y="165.29851" fill="#000000" font-family="sans-serif" font-size="3.5278px" stroke-width=".13054" style="line-height:1.25" xml:space="preserve"><tspan x="134.265" y="165.29851" font-family="'Fira Code'" font-size="3.5278px" stroke-width=".13054">...</tspan></text><rect x="248.13" y="150.77" width="12.114" height="7.4469" ry="2.2035" fill="#f2f2f2" stroke="#4d4d4d" stroke-linecap="round" stroke-linejoin="round" stroke-width=".5"/><g><text x="250.8203" y="155.77348" fill="#000000" font-family="sans-serif" font-size="3.5278px" stroke-width=".13054" style="line-height:1.25" xml:space="preserve"><tspan x="250.8203" y="155.77348" font-family="'Fira Code'" font-size="3.5278px" stroke-width=".13054">...</tspan></text><rect x="85.554" y="90.323" width="57.054" height="7.4469" ry="2.2035" fill="#5684b7"/><text x="88.166161" y="95.324753" fill="#ffffff" font-family="sans-serif" font-size="3.5278px" stroke-width=".13054" style="line-height:1.25" xml:space="preserve"><tspan x="88.166161" y="95.324753" fill="#ffffff" font-family="'Fira Code'" font-size="3.5278px" stroke-width=".13054">djht:CollectionContainer</tspan></text><rect x="175.31" y="90.323" width="37.502" height="7.4469" ry="2.2035" fill="#75a1b7"/><text x="177.91805" y="95.32476" fill="#ffffff" font-family="sans-serif" font-size="3.5278px" stroke-width=".13054" style="line-height:1.25" xml:space="preserve"><tspan x="177.91805" y="95.32476" fill="#ffffff" font-family="'Fira Code'" font-size="3.5278px" stroke-width=".13054">djht:Collection</tspan></text><rect x="247.88" y="122.2" width="30.997" height="7.4469" ry="2.2035" fill="#805500"/><text x="250.48875" y="127.20164" fill="#ffffff" font-family="sans-serif" font-size="3.5278px" stroke-width=".13054" style="line-height:1.25" xml:space="preserve"><tspan x="250.48875" y="127.20164" fill="#ffffff" font-family="'Fira Code'" font-size="3.5278px" stroke-width=".13054">djht:Dataset</tspan></text></g></g></svg>
