<?xml version="1.0" encoding="UTF-8"?>
<svg width="230mm" height="54.8mm" version="1.1" viewBox="0 0 230 54.8" xmlns="http://www.w3.org/2000/svg"><g transform="translate(-368.41 -91.39)"><text x="454.32983" y="108.37272" fill="#000000" font-family="sans-serif" font-size="3.5278px" stroke-width=".13054" style="line-height:1.25" xml:space="preserve"><tspan x="454.32983" y="108.37272" font-family="'Fira Code'" font-size="3.5278px" stroke-width=".13054">djht:account</tspan></text><text x="487.03741" y="139.59384" fill="#000000" font-family="sans-serif" font-size="3.5278px" stroke-width=".13054" style="line-height:1.25" xml:space="preserve"><tspan x="487.03741" y="139.59384" font-family="'Fira Code'" font-size="3.5278px" stroke-width=".13054">djht:metadata_remove</tspan></text><path d="m484.16 134.29v8.1683l44.84-0.0417" fill="none" stroke="#000" stroke-linecap="round" stroke-width=".5"/><path transform="matrix(-.549 .12832 .1471 .47889 668.15 84.599)" d="m267.07 52.47c-0.22761 0.22761-6.1352-1.3553-6.2185-1.6662-0.0833-0.31092 4.2413-4.6356 4.5522-4.5522 0.31092 0.08331 1.8938 5.9909 1.6662 6.2185z" fill="#fff" stroke="#000" stroke-linecap="round" stroke-linejoin="round" stroke-width=".75353"/><text x="450.0567" y="118.42716" fill="#000000" font-family="sans-serif" font-size="3.5278px" stroke-width=".13054" style="line-height:1.25" xml:space="preserve"><tspan x="450.0567" y="118.42716" font-family="'Fira Code'" font-size="3.5278px" stroke-width=".13054">djht:data_read</tspan></text><g stroke="#000" stroke-linecap="round"><path d="m482.64 113.13v8.1683l-32.695-0.0417" fill="none" stroke-width=".5"/><path d="m482.68 103.07v8.1683l-32.906-0.0417" fill="none" stroke-width=".5"/><path transform="matrix(.549 .12832 -.1471 .47889 310.82 53.418)" d="m267.07 52.47c-0.22761 0.22761-6.1352-1.3553-6.2185-1.6662-0.0833-0.31092 4.2413-4.6356 4.5522-4.5522 0.31092 0.08331 1.8938 5.9909 1.6662 6.2185z" fill="#fff" stroke-linejoin="round" stroke-width=".75353"/><path transform="matrix(.549 .12832 -.1471 .47889 310.82 63.433)" d="m267.07 52.47c-0.22761 0.22761-6.1352-1.3553-6.2185-1.6662-0.0833-0.31092 4.2413-4.6356 4.5522-4.5522 0.31092 0.08331 1.8938 5.9909 1.6662 6.2185z" fill="#fff" stroke-linejoin="round" stroke-width=".75353"/></g><rect x="529.34" y="117.33" width="28.582" height="7.447" rx="0" ry="0" fill="#4d4d4d" stroke="#4d4d4d" stroke-linecap="round" stroke-linejoin="round" stroke-width=".5"/><text x="487.03741" y="118.42716" fill="#000000" font-family="sans-serif" font-size="3.5278px" stroke-width=".13054" style="line-height:1.25" xml:space="preserve"><tspan x="487.03741" y="118.42716" font-family="'Fira Code'" font-size="3.5278px" stroke-width=".13054">djht:metadata_read</tspan></text><path d="m484.16 113.13v8.1683l39.903-0.0417" fill="none" stroke="#000" stroke-linecap="round" stroke-width=".5"/><path transform="matrix(-.549 .12832 .1471 .47889 662.86 63.433)" d="m267.07 52.47c-0.22761 0.22761-6.1352-1.3553-6.2185-1.6662-0.0833-0.31092 4.2413-4.6356 4.5522-4.5522 0.31092 0.08331 1.8938 5.9909 1.6662 6.2185z" fill="#fff" stroke="#000" stroke-linecap="round" stroke-linejoin="round" stroke-width=".75353"/><g><text x="531.95648" y="122.3282" fill="#ffffff" font-family="sans-serif" font-size="3.5278px" stroke-width=".13054" style="line-height:1.25" xml:space="preserve"><tspan x="531.95648" y="122.3282" fill="#ffffff" font-family="'Fira Code'" font-size="3.5278px" stroke-width=".13054">xsd:boolean</tspan></text><rect x="534.64" y="138.49" width="28.582" height="7.447" rx="0" ry="0" fill="#4d4d4d" stroke="#4d4d4d" stroke-linecap="round" stroke-linejoin="round" stroke-width=".5"/><text x="537.24817" y="143.49489" fill="#ffffff" font-family="sans-serif" font-size="3.5278px" stroke-width=".13054" style="line-height:1.25" xml:space="preserve"><tspan x="537.24817" y="143.49489" fill="#ffffff" font-family="'Fira Code'" font-size="3.5278px" stroke-width=".13054">xsd:boolean</tspan></text><text x="449.98795" y="129.0105" fill="#000000" font-family="sans-serif" font-size="3.5278px" stroke-width=".13054" style="line-height:1.25" xml:space="preserve"><tspan x="449.98795" y="129.0105" font-family="'Fira Code'" font-size="3.5278px" stroke-width=".13054">djht:data_edit</tspan></text></g><path d="m482.64 123.71v8.1683l-32.647-0.0417" fill="none" stroke="#000" stroke-linecap="round" stroke-width=".5"/><path transform="matrix(.549 .12832 -.1471 .47889 310.82 74.016)" d="m267.07 52.47c-0.22761 0.22761-6.1352-1.3553-6.2185-1.6662-0.0833-0.31092 4.2413-4.6356 4.5522-4.5522 0.31092 0.08331 1.8938 5.9909 1.6662 6.2185z" fill="#fff" stroke="#000" stroke-linecap="round" stroke-linejoin="round" stroke-width=".75353"/><g><rect x="412.88" y="107.27" width="31" height="7.447" ry="2.2035" fill="#5d536c"/><text x="415.37537" y="112.27401" fill="#ffffff" font-family="sans-serif" font-size="3.5278px" stroke-width=".13054" style="line-height:1.25" xml:space="preserve"><tspan x="415.37537" y="112.27401" fill="#ffffff" font-family="'Fira Code'" font-size="3.5278px" stroke-width=".13054">djht:Account</tspan></text><text x="445.63159" y="139.59383" fill="#000000" font-family="sans-serif" font-size="3.5278px" stroke-width=".13054" style="line-height:1.25" xml:space="preserve"><tspan x="445.63159" y="139.59383" font-family="'Fira Code'" font-size="3.5278px" stroke-width=".13054">djht:data_remove</tspan></text></g><path d="m482.64 134.29v8.1683l-36.743-0.0417" fill="none" stroke="#000" stroke-linecap="round" stroke-width=".5"/><path transform="matrix(.549 .12832 -.1471 .47889 306.59 84.599)" d="m267.07 52.47c-0.22761 0.22761-6.1352-1.3553-6.2185-1.6662-0.0833-0.31092 4.2413-4.6356 4.5522-4.5522 0.31092 0.08331 1.8938 5.9909 1.6662 6.2185z" fill="#fff" stroke="#000" stroke-linecap="round" stroke-linejoin="round" stroke-width=".75353"/><rect x="382.17" y="93.443" width="30.997" height="7.4469" ry="2.2035" fill="#805500"/><text x="384.78421" y="98.444237" fill="#ffffff" font-family="sans-serif" font-size="3.5278px" stroke-width=".13054" style="line-height:1.25" xml:space="preserve"><tspan x="384.78421" y="98.444237" fill="#ffffff" font-family="'Fira Code'" font-size="3.5278px" stroke-width=".13054">djht:Dataset</tspan></text><path transform="matrix(-.549 .12832 .1471 .47889 605.02 39.335)" d="m267.07 52.47c-0.22761 0.22761-6.1352-1.3553-6.2185-1.6662-0.0833-0.31092 4.2413-4.6356 4.5522-4.5522 0.31092 0.08331 1.8938 5.9909 1.6662 6.2185z" fill="#fff" stroke="#000" stroke-linecap="round" stroke-linejoin="round" stroke-width=".75353"/><text x="418.63171" y="94.187119" fill="#000000" font-family="sans-serif" font-size="3.5278px" stroke-width=".13054" style="line-height:1.25" xml:space="preserve"><tspan x="418.63171" y="94.187119" font-family="'Fira Code'" font-size="3.5278px" stroke-width=".13054">djht:collaborators</tspan></text><g stroke="#000" stroke-linecap="round"><path d="m415.76 97.196 43.918-0.0417" fill="none" stroke-width=".5"/><path transform="matrix(-.549 .12832 .1471 .47889 598.7 39.364)" d="m267.07 52.47c-0.22761 0.22761-6.1352-1.3553-6.2185-1.6662-0.0833-0.31092 4.2413-4.6356 4.5522-4.5522 0.31092 0.08331 1.8938 5.9909 1.6662 6.2185z" fill="#fff" stroke-linejoin="round" stroke-width=".75353"/><path transform="matrix(-.549 .12832 .1471 .47889 595 39.364)" d="m267.07 52.47c-0.22761 0.22761-6.1352-1.3553-6.2185-1.6662-0.0833-0.31092 4.2413-4.6356 4.5522-4.5522 0.31092 0.08331 1.8938 5.9909 1.6662 6.2185z" fill="#fff" stroke-linejoin="round" stroke-width=".75353"/></g><g><rect x="464.98" y="93.443" width="41.311" height="7.447" ry="2.2035" fill="#7c916f"/><text x="467.47958" y="98.444214" fill="#ffffff" font-family="sans-serif" font-size="3.5278px" stroke-width=".13054" style="line-height:1.25" xml:space="preserve"><tspan x="467.47958" y="98.444214" fill="#ffffff" font-family="'Fira Code'" font-size="3.5278px" stroke-width=".13054">djht:Collaborator</tspan></text><rect x="529.34" y="127.91" width="28.582" height="7.447" rx="0" ry="0" fill="#4d4d4d" stroke="#4d4d4d" stroke-linecap="round" stroke-linejoin="round" stroke-width=".5"/><text x="487.03741" y="129.0105" fill="#000000" font-family="sans-serif" font-size="3.5278px" stroke-width=".13054" style="line-height:1.25" xml:space="preserve"><tspan x="487.03741" y="129.0105" font-family="'Fira Code'" font-size="3.5278px" stroke-width=".13054">djht:metadata_edit</tspan></text></g><path d="m484.16 123.71v8.1683l39.903-0.0417" fill="none" stroke="#000" stroke-linecap="round" stroke-width=".5"/><path transform="matrix(-.549 .12832 .1471 .47889 662.86 74.016)" d="m267.07 52.47c-0.22761 0.22761-6.1352-1.3553-6.2185-1.6662-0.0833-0.31092 4.2413-4.6356 4.5522-4.5522 0.31092 0.08331 1.8938 5.9909 1.6662 6.2185z" fill="#fff" stroke="#000" stroke-linecap="round" stroke-linejoin="round" stroke-width=".75353"/><g><text x="531.95648" y="132.91154" fill="#ffffff" font-family="sans-serif" font-size="3.5278px" stroke-width=".13054" style="line-height:1.25" xml:space="preserve"><tspan x="531.95648" y="132.91154" fill="#ffffff" font-family="'Fira Code'" font-size="3.5278px" stroke-width=".13054">xsd:boolean</tspan></text><rect x="415.04" y="127.91" width="28.582" height="7.447" rx="0" ry="0" fill="#4d4d4d" stroke="#4d4d4d" stroke-linecap="round" stroke-linejoin="round" stroke-width=".5"/><text x="417.65665" y="132.91154" fill="#ffffff" font-family="sans-serif" font-size="3.5278px" stroke-width=".13054" style="line-height:1.25" xml:space="preserve"><tspan x="417.65665" y="132.91154" fill="#ffffff" font-family="'Fira Code'" font-size="3.5278px" stroke-width=".13054">xsd:boolean</tspan></text><rect x="415.04" y="117.33" width="28.582" height="7.447" rx="0" ry="0" fill="#4d4d4d" stroke="#4d4d4d" stroke-linecap="round" stroke-linejoin="round" stroke-width=".5"/><text x="417.65665" y="122.32822" fill="#ffffff" font-family="sans-serif" font-size="3.5278px" stroke-width=".13054" style="line-height:1.25" xml:space="preserve"><tspan x="417.65665" y="122.32822" fill="#ffffff" font-family="'Fira Code'" font-size="3.5278px" stroke-width=".13054">xsd:boolean</tspan></text><rect x="410.81" y="138.49" width="28.582" height="7.447" rx="0" ry="0" fill="#4d4d4d" stroke="#4d4d4d" stroke-linecap="round" stroke-linejoin="round" stroke-width=".5"/><text x="413.42334" y="143.49489" fill="#ffffff" font-family="sans-serif" font-size="3.5278px" stroke-width=".13054" style="line-height:1.25" xml:space="preserve"><tspan x="413.42334" y="143.49489" fill="#ffffff" font-family="'Fira Code'" font-size="3.5278px" stroke-width=".13054">xsd:boolean</tspan></text><text x="487.03741" y="108.37299" fill="#000000" font-family="sans-serif" font-size="3.5278px" stroke-width=".13054" style="line-height:1.25" xml:space="preserve"><tspan x="487.03741" y="108.37299" font-family="'Fira Code'" font-size="3.5278px" stroke-width=".13054">djht:added_by</tspan></text></g><path d="m484.16 103.07v8.1683l32.423-0.0417" fill="none" stroke="#000" stroke-linecap="round" stroke-width=".5"/><path transform="matrix(-.549 .12832 .1471 .47889 655.45 53.378)" d="m267.07 52.47c-0.22761 0.22761-6.1352-1.3553-6.2185-1.6662-0.0833-0.31092 4.2413-4.6356 4.5522-4.5522 0.31092 0.08331 1.8938 5.9909 1.6662 6.2185z" fill="#fff" stroke="#000" stroke-linecap="round" stroke-linejoin="round" stroke-width=".75353"/><rect x="521.88" y="107.27" width="31" height="7.447" ry="2.2035" fill="#5d536c"/><text x="524.38354" y="112.27405" fill="#ffffff" font-family="sans-serif" font-size="3.5278px" stroke-width=".13054" style="line-height:1.25" xml:space="preserve"><tspan x="524.38354" y="112.27405" fill="#ffffff" font-family="'Fira Code'" font-size="3.5278px" stroke-width=".13054">djht:Account</tspan></text></g></svg>
