<?xml version="1.0" encoding="UTF-8"?>
<svg width="230mm" height="66.559mm" version="1.1" viewBox="0 0 230 66.559" xmlns="http://www.w3.org/2000/svg"><g transform="translate(-161.88 -91.458)"><g fill="#000000" font-family="sans-serif" font-size="3.5278px" stroke-width=".13054"><text x="280.43866" y="117.98782" style="line-height:1.25" xml:space="preserve"><tspan x="280.43866" y="117.98782" font-family="'Fira Code'" font-size="3.5278px" stroke-width=".13054">djht:published_versions</tspan></text><text x="280.43866" y="140.21278" style="line-height:1.25" xml:space="preserve"><tspan x="280.43866" y="140.21278" font-family="'Fira Code'" font-size="3.5278px" stroke-width=".13054">djht:dataset_id</tspan></text><text x="280.43866" y="129.10039" style="line-height:1.25" xml:space="preserve"><tspan x="280.43866" y="129.10039" font-family="'Fira Code'" font-size="3.5278px" stroke-width=".13054">djht:latest_published_version</tspan></text></g><path d="m277.57 111.47v9.2817l53.16-0.0417" fill="none" stroke="#000" stroke-linecap="round" stroke-width=".5"/><g><rect x="322.5" y="105.62" width="30.997" height="7.4469" ry="2.2035" fill="#805500"/><text x="325.10831" y="110.62029" fill="#ffffff" font-family="sans-serif" font-size="3.5278px" stroke-width=".13054" style="line-height:1.25" xml:space="preserve"><tspan x="325.10831" y="110.62029" fill="#ffffff" font-family="'Fira Code'" font-size="3.5278px" stroke-width=".13054">djht:Dataset</tspan></text><rect x="251.44" y="91.458" width="50.835" height="7.4469" ry="2.2035" fill="#806b00"/><text x="254.0472" y="96.45993" fill="#ffffff" font-family="sans-serif" font-size="3.5278px" stroke-width=".13054" style="line-height:1.25" xml:space="preserve"><tspan x="254.0472" y="96.45993" fill="#ffffff" font-family="'Fira Code'" font-size="3.5278px" stroke-width=".13054">djht:DatasetContainer</tspan></text><rect x="322.77" y="139.21" width="28.582" height="7.4469" rx="0" ry="0" fill="#005580" stroke="#005580" stroke-linecap="round" stroke-linejoin="round" stroke-width=".5"/><text x="325.37805" y="144.20958" fill="#ffffff" font-family="sans-serif" font-size="3.5278px" stroke-width=".13054" style="line-height:1.25" xml:space="preserve"><tspan x="325.37805" y="144.20958" fill="#ffffff" font-family="'Fira Code'" font-size="3.5278px" stroke-width=".13054">xsd:integer</tspan></text></g><g fill="#fff" stroke="#000" stroke-linecap="round" stroke-linejoin="round" stroke-width=".75353"><path transform="matrix(-.549 .12832 .1471 .47889 456.36 85.13)" d="m267.07 52.47c-0.22761 0.22761-6.1352-1.3553-6.2185-1.6662-0.0833-0.31092 4.2413-4.6356 4.5522-4.5522 0.31092 0.08331 1.8938 5.9909 1.6662 6.2185z"/><path transform="matrix(-.549 .12832 .1471 .47889 470.05 62.882)" d="m267.07 52.47c-0.22761 0.22761-6.1352-1.3553-6.2185-1.6662-0.0833-0.31092 4.2413-4.6356 4.5522-4.5522 0.31092 0.08331 1.8938 5.9909 1.6662 6.2185z"/><path transform="matrix(-.549 .12832 .1471 .47889 473.76 62.882)" d="m267.07 52.47c-0.22761 0.22761-6.1352-1.3553-6.2185-1.6662-0.0833-0.31092 4.2413-4.6356 4.5522-4.5522 0.31092 0.08331 1.8938 5.9909 1.6662 6.2185z"/></g><rect x="339.99" y="116.96" width="30.997" height="7.4469" ry="2.2035" fill="#805500"/><text x="342.60339" y="121.96201" fill="#ffffff" font-family="sans-serif" font-size="3.5278px" stroke-width=".13054" style="line-height:1.25" xml:space="preserve"><tspan x="342.60339" y="121.96201" fill="#ffffff" font-family="'Fira Code'" font-size="3.5278px" stroke-width=".13054">djht:Dataset</tspan></text><path d="m277.57 144.81v9.2817l50.873-0.0417" fill="none" stroke="#000" stroke-linecap="round" stroke-width=".5"/><text x="280.43866" y="151.32529" fill="#000000" font-family="sans-serif" font-size="3.5278px" stroke-width=".13054" style="line-height:1.25" xml:space="preserve"><tspan x="280.43866" y="151.32529" font-family="'Fira Code'" font-size="3.5278px" stroke-width=".13054">djht:first_online_date</tspan></text><path transform="matrix(-.549 .12832 .1471 .47889 466.94 96.242)" d="m267.07 52.47c-0.22761 0.22761-6.1352-1.3553-6.2185-1.6662-0.0833-0.31092 4.2413-4.6356 4.5522-4.5522 0.31092 0.08331 1.8938 5.9909 1.6662 6.2185z" fill="#fff" stroke="#000" stroke-linecap="round" stroke-linejoin="round" stroke-width=".75353"/><g><rect x="333.35" y="150.32" width="31" height="7.4469" rx="0" ry="0" fill="#800055" stroke="#800055" stroke-linecap="round" stroke-linejoin="round" stroke-width=".5"/><g font-family="sans-serif" font-size="3.5278px" stroke-width=".13054"><text x="335.9614" y="155.32211" fill="#ffffff" style="line-height:1.25" xml:space="preserve"><tspan x="335.9614" y="155.32211" fill="#ffffff" font-family="'Fira Code'" font-size="3.5278px" stroke-width=".13054">xsd:dateTime</tspan></text><text x="230.27637" y="117.9878" fill="#000000" style="line-height:1.25" xml:space="preserve"><tspan x="230.27637" y="117.9878" font-family="'Fira Code'" font-size="3.5278px" stroke-width=".13054">djht:total_downloads</tspan></text><text x="238.96013" y="129.10028" fill="#000000" style="line-height:1.25" xml:space="preserve"><tspan x="238.96013" y="129.10028" font-family="'Fira Code'" font-size="3.5278px" stroke-width=".13054">djht:total_views</tspan></text></g></g><g stroke="#000" stroke-linecap="round"><path d="m277.57 133.7v9.2817l39.69-0.0417" fill="none" stroke-width=".5"/><path d="m276.14 111.47v9.2817l-45.112-0.0417" fill="none" stroke-width=".5"/><path transform="matrix(.549 .12832 -.1471 .47889 92.053 62.905)" d="m267.07 52.47c-0.22761 0.22761-6.1352-1.3553-6.2185-1.6662-0.0833-0.31092 4.2413-4.6356 4.5522-4.5522 0.31092 0.08331 1.8938 5.9909 1.6662 6.2185z" fill="#fff" stroke-linejoin="round" stroke-width=".75353"/><path d="m276.14 122.59v9.2817l-40.605-0.0417" fill="none" stroke-width=".5"/><path transform="matrix(.549 .12832 -.1471 .47889 96.815 74.017)" d="m267.07 52.47c-0.22761 0.22761-6.1352-1.3553-6.2185-1.6662-0.0833-0.31092 4.2413-4.6356 4.5522-4.5522 0.31092 0.08331 1.8938 5.9909 1.6662 6.2185z" fill="#fff" stroke-linejoin="round" stroke-width=".75353"/></g><text x="236.78918" y="140.21278" fill="#000000" font-family="sans-serif" font-size="3.5278px" stroke-width=".13054" style="line-height:1.25" xml:space="preserve"><tspan x="236.78918" y="140.21278" font-family="'Fira Code'" font-size="3.5278px" stroke-width=".13054">djht:total_shares</tspan></text><text x="238.96013" y="151.32529" fill="#000000" font-family="sans-serif" font-size="3.5278px" stroke-width=".13054" style="line-height:1.25" xml:space="preserve"><tspan x="238.96013" y="151.32529" font-family="'Fira Code'" font-size="3.5278px" stroke-width=".13054">djht:total_cites</tspan></text><g stroke="#000" stroke-linecap="round"><path d="m276.14 133.7v9.2817l-40.605-0.0417" fill="none" stroke-width=".5"/><path transform="matrix(.549 .12832 -.1471 .47889 96.815 85.13)" d="m267.07 52.47c-0.22761 0.22761-6.1352-1.3553-6.2185-1.6662-0.0833-0.31092 4.2413-4.6356 4.5522-4.5522 0.31092 0.08331 1.8938 5.9909 1.6662 6.2185z" fill="#fff" stroke-linejoin="round" stroke-width=".75353"/><path d="m276.14 144.81v9.2817l-40.605-0.0417" fill="none" stroke-width=".5"/><path transform="matrix(.549 .12832 -.1471 .47889 96.815 96.242)" d="m267.07 52.47c-0.22761 0.22761-6.1352-1.3553-6.2185-1.6662-0.0833-0.31092 4.2413-4.6356 4.5522-4.5522 0.31092 0.08331 1.8938 5.9909 1.6662 6.2185z" fill="#fff" stroke-linejoin="round" stroke-width=".75353"/><path d="m277.57 122.59v9.2817l64.363-0.0417" fill="none" stroke-width=".5"/><path transform="matrix(-.549 .12832 .1471 .47889 480.64 73.995)" d="m267.07 52.47c-0.22761 0.22761-6.1352-1.3553-6.2185-1.6662-0.0833-0.31092 4.2413-4.6356 4.5522-4.5522 0.31092 0.08331 1.8938 5.9909 1.6662 6.2185z" fill="#fff" stroke-linejoin="round" stroke-width=".75353"/></g><g><rect x="346.87" y="128.07" width="30.997" height="7.4469" ry="2.2035" fill="#805500"/><text x="349.48257" y="133.07451" fill="#ffffff" font-family="sans-serif" font-size="3.5278px" stroke-width=".13054" style="line-height:1.25" xml:space="preserve"><tspan x="349.48257" y="133.07451" fill="#ffffff" font-family="'Fira Code'" font-size="3.5278px" stroke-width=".13054">djht:Dataset</tspan></text><rect x="197.35" y="116.98" width="28.582" height="7.4469" rx="0" ry="0" fill="#005580" stroke="#005580" stroke-linecap="round" stroke-linejoin="round" stroke-width=".5"/><text x="199.96555" y="121.98459" fill="#ffffff" font-family="sans-serif" font-size="3.5278px" stroke-width=".13054" style="line-height:1.25" xml:space="preserve"><tspan x="199.96555" y="121.98459" fill="#ffffff" font-family="'Fira Code'" font-size="3.5278px" stroke-width=".13054">xsd:integer</tspan></text><rect x="202.12" y="128.1" width="28.582" height="7.4469" rx="0" ry="0" fill="#005580" stroke="#005580" stroke-linecap="round" stroke-linejoin="round" stroke-width=".5"/><text x="204.72804" y="133.09708" fill="#ffffff" font-family="sans-serif" font-size="3.5278px" stroke-width=".13054" style="line-height:1.25" xml:space="preserve"><tspan x="204.72804" y="133.09708" fill="#ffffff" font-family="'Fira Code'" font-size="3.5278px" stroke-width=".13054">xsd:integer</tspan></text><rect x="202.12" y="139.21" width="28.582" height="7.4469" rx="0" ry="0" fill="#005580" stroke="#005580" stroke-linecap="round" stroke-linejoin="round" stroke-width=".5"/><text x="204.72804" y="144.20959" fill="#ffffff" font-family="sans-serif" font-size="3.5278px" stroke-width=".13054" style="line-height:1.25" xml:space="preserve"><tspan x="204.72804" y="144.20959" fill="#ffffff" font-family="'Fira Code'" font-size="3.5278px" stroke-width=".13054">xsd:integer</tspan></text><rect x="202.12" y="150.32" width="28.582" height="7.4469" rx="0" ry="0" fill="#005580" stroke="#005580" stroke-linecap="round" stroke-linejoin="round" stroke-width=".5"/><text x="204.72804" y="155.3221" fill="#ffffff" font-family="sans-serif" font-size="3.5278px" stroke-width=".13054" style="line-height:1.25" xml:space="preserve"><tspan x="204.72804" y="155.3221" fill="#ffffff" font-family="'Fira Code'" font-size="3.5278px" stroke-width=".13054">xsd:integer</tspan></text><text x="247.78477" y="106.71927" fill="#000000" font-family="sans-serif" font-size="3.5278px" stroke-width=".13054" style="line-height:1.25" xml:space="preserve"><tspan x="247.78477" y="106.71927" font-family="'Fira Code'" font-size="3.5278px" stroke-width=".13054">djht:account</tspan></text></g><path d="m276.14 101.42v8.1683l-39.903-0.0417" fill="none" stroke="#000" stroke-linecap="round" stroke-width=".5"/><path transform="matrix(.549 .12832 -.1471 .47889 97.397 51.765)" d="m267.07 52.47c-0.22761 0.22761-6.1352-1.3553-6.2185-1.6662-0.0833-0.31092 4.2413-4.6356 4.5522-4.5522 0.31092 0.08331 1.8938 5.9909 1.6662 6.2185z" fill="#fff" stroke="#000" stroke-linecap="round" stroke-linejoin="round" stroke-width=".75353"/><g><rect x="199.39" y="105.62" width="31" height="7.447" ry="2.2035" fill="#5d536c"/><text x="201.88576" y="110.62056" fill="#ffffff" font-family="sans-serif" font-size="3.5278px" stroke-width=".13054" style="line-height:1.25" xml:space="preserve"><tspan x="201.88576" y="110.62056" fill="#ffffff" font-family="'Fira Code'" font-size="3.5278px" stroke-width=".13054">djht:Account</tspan></text><text x="280.43927" y="106.71928" fill="#000000" font-family="sans-serif" font-size="3.5278px" stroke-width=".13054" style="line-height:1.25" xml:space="preserve"><tspan x="280.43927" y="106.71928" font-family="'Fira Code'" font-size="3.5278px" stroke-width=".13054">djht:draft</tspan></text></g><path d="m277.57 101.42v8.1683l39.903-0.0417" fill="none" stroke="#000" stroke-linecap="round" stroke-width=".5"/><path transform="matrix(-.549 .12832 .1471 .47889 456.26 51.725)" d="m267.07 52.47c-0.22761 0.22761-6.1352-1.3553-6.2185-1.6662-0.0833-0.31092 4.2413-4.6356 4.5522-4.5522 0.31092 0.08331 1.8938 5.9909 1.6662 6.2185z" fill="#fff" stroke="#000" stroke-linecap="round" stroke-linejoin="round" stroke-width=".75353"/></g></svg>
