<?xml version="1.0" encoding="UTF-8"?>
<svg width="230mm" height="54.134mm" version="1.1" viewBox="0 0 230 54.134" xmlns="http://www.w3.org/2000/svg"><g transform="translate(-368.41 -92.077)"><text x="454.32983" y="108.37272" fill="#000000" font-family="sans-serif" font-size="3.5278px" stroke-width=".13054" style="line-height:1.25" xml:space="preserve"><tspan x="454.32983" y="108.37272" font-family="'Fira Code'" font-size="3.5278px" stroke-width=".13054">djht:account</tspan></text><text x="487.03741" y="139.59384" fill="#000000" font-family="sans-serif" font-size="3.5278px" stroke-width=".13054" style="line-height:1.25" xml:space="preserve"><tspan x="487.03741" y="139.59384" font-family="'Fira Code'" font-size="3.5278px" stroke-width=".13054">djht:is_incomplete</tspan></text><path d="m484.16 134.29v8.1683l44.84-0.0417" fill="none" stroke="#000" stroke-linecap="round" stroke-width=".5"/><path transform="matrix(-.549 .12832 .1471 .47889 668.15 84.599)" d="m267.07 52.47c-0.22761 0.22761-6.1352-1.3553-6.2185-1.6662-0.0833-0.31092 4.2413-4.6356 4.5522-4.5522 0.31092 0.08331 1.8938 5.9909 1.6662 6.2185z" fill="#fff" stroke="#000" stroke-linecap="round" stroke-linejoin="round" stroke-width=".75353"/><text x="487.03741" y="129.0105" fill="#000000" font-family="sans-serif" font-size="3.5278px" stroke-width=".13054" style="line-height:1.25" xml:space="preserve"><tspan x="487.03741" y="129.0105" font-family="'Fira Code'" font-size="3.5278px" stroke-width=".13054">djht:is_image</tspan></text><path d="m484.16 123.71v8.1683l39.903-0.0417" fill="none" stroke="#000" stroke-linecap="round" stroke-width=".5"/><path transform="matrix(-.549 .12832 .1471 .47889 662.86 74.016)" d="m267.07 52.47c-0.22761 0.22761-6.1352-1.3553-6.2185-1.6662-0.0833-0.31092 4.2413-4.6356 4.5522-4.5522 0.31092 0.08331 1.8938 5.9909 1.6662 6.2185z" fill="#fff" stroke="#000" stroke-linecap="round" stroke-linejoin="round" stroke-width=".75353"/><text x="443.50769" y="118.42716" fill="#000000" font-family="sans-serif" font-size="3.5278px" stroke-width=".13054" style="line-height:1.25" xml:space="preserve"><tspan x="443.50769" y="118.42716" font-family="'Fira Code'" font-size="3.5278px" stroke-width=".13054">djht:computed_md5</tspan></text><g stroke="#000" stroke-linecap="round"><path d="m482.64 113.13v8.1683l-39.903-0.0417" fill="none" stroke-width=".5"/><path d="m482.68 103.07v8.1683l-39.903-0.0417" fill="none" stroke-width=".5"/><path transform="matrix(.549 .12832 -.1471 .47889 303.94 53.418)" d="m267.07 52.47c-0.22761 0.22761-6.1352-1.3553-6.2185-1.6662-0.0833-0.31092 4.2413-4.6356 4.5522-4.5522 0.31092 0.08331 1.8938 5.9909 1.6662 6.2185z" fill="#fff" stroke-linejoin="round" stroke-width=".75353"/><path transform="matrix(.549 .12832 -.1471 .47889 303.94 63.433)" d="m267.07 52.47c-0.22761 0.22761-6.1352-1.3553-6.2185-1.6662-0.0833-0.31092 4.2413-4.6356 4.5522-4.5522 0.31092 0.08331 1.8938 5.9909 1.6662 6.2185z" fill="#fff" stroke-linejoin="round" stroke-width=".75353"/></g><g><rect x="529.34" y="127.91" width="28.582" height="7.447" rx="0" ry="0" fill="#4d4d4d" stroke="#4d4d4d" stroke-linecap="round" stroke-linejoin="round" stroke-width=".5"/><text x="531.95648" y="132.91154" fill="#ffffff" font-family="sans-serif" font-size="3.5278px" stroke-width=".13054" style="line-height:1.25" xml:space="preserve"><tspan x="531.95648" y="132.91154" fill="#ffffff" font-family="'Fira Code'" font-size="3.5278px" stroke-width=".13054">xsd:boolean</tspan></text><rect x="534.64" y="138.49" width="28.582" height="7.447" rx="0" ry="0" fill="#4d4d4d" stroke="#4d4d4d" stroke-linecap="round" stroke-linejoin="round" stroke-width=".5"/><text x="537.24817" y="143.49489" fill="#ffffff" font-family="sans-serif" font-size="3.5278px" stroke-width=".13054" style="line-height:1.25" xml:space="preserve"><tspan x="537.24817" y="143.49489" fill="#ffffff" font-family="'Fira Code'" font-size="3.5278px" stroke-width=".13054">xsd:boolean</tspan></text><rect x="409.75" y="117.33" width="27" height="7.4469" rx="0" ry="0" fill="#800015" stroke="#800015" stroke-linecap="round" stroke-linejoin="round" stroke-width=".5"/><text x="412.36493" y="122.32819" fill="#ffffff" font-family="sans-serif" font-size="3.5278px" stroke-width=".13054" style="line-height:1.25" xml:space="preserve"><tspan x="412.36493" y="122.32819" fill="#ffffff" font-family="'Fira Code'" font-size="3.5278px" stroke-width=".13054">xsd:string</tspan></text><text x="428.34366" y="129.0105" fill="#000000" font-family="sans-serif" font-size="3.5278px" stroke-width=".13054" style="line-height:1.25" xml:space="preserve"><tspan x="428.34366" y="129.0105" font-family="'Fira Code'" font-size="3.5278px" stroke-width=".13054">djht:filesystem_location</tspan></text></g><g stroke-linecap="round"><path d="m482.64 123.71v8.1683l-55.383-0.0417" fill="none" stroke="#000" stroke-width=".5"/><path transform="matrix(.549 .12832 -.1471 .47889 288.07 74.016)" d="m267.07 52.47c-0.22761 0.22761-6.1352-1.3553-6.2185-1.6662-0.0833-0.31092 4.2413-4.6356 4.5522-4.5522 0.31092 0.08331 1.8938 5.9909 1.6662 6.2185z" fill="#fff" stroke="#000" stroke-linejoin="round" stroke-width=".75353"/><rect x="393.88" y="127.91" width="27" height="7.4469" rx="0" ry="0" fill="#800015" stroke="#800015" stroke-linejoin="round" stroke-width=".5"/></g><text x="396.48996" y="132.91153" fill="#ffffff" font-family="sans-serif" font-size="3.5278px" stroke-width=".13054" style="line-height:1.25" xml:space="preserve"><tspan x="396.48996" y="132.91153" fill="#ffffff" font-family="'Fira Code'" font-size="3.5278px" stroke-width=".13054">xsd:string</tspan></text><g transform="translate(64.187 10.089)"><rect x="341.75" y="97.184" width="31" height="7.447" ry="2.2035" fill="#5d536c"/><text x="344.24393" y="102.18529" fill="#ffffff" font-family="sans-serif" font-size="3.5278px" stroke-width=".13054" style="line-height:1.25" xml:space="preserve"><tspan x="344.24393" y="102.18529" fill="#ffffff" font-family="'Fira Code'" font-size="3.5278px" stroke-width=".13054">djht:Account</tspan></text></g><text x="487.03741" y="108.37299" fill="#000000" font-family="sans-serif" font-size="3.5278px" stroke-width=".13054" style="line-height:1.25" xml:space="preserve"><tspan x="487.03741" y="108.37299" font-family="'Fira Code'" font-size="3.5278px" stroke-width=".13054">djht:name</tspan></text><path d="m484.16 103.07v8.1683l39.903-0.0417" fill="none" stroke="#000" stroke-linecap="round" stroke-width=".5"/><path transform="matrix(-.549 .12832 .1471 .47889 662.86 53.378)" d="m267.07 52.47c-0.22761 0.22761-6.1352-1.3553-6.2185-1.6662-0.0833-0.31092 4.2413-4.6356 4.5522-4.5522 0.31092 0.08331 1.8938 5.9909 1.6662 6.2185z" fill="#fff" stroke="#000" stroke-linecap="round" stroke-linejoin="round" stroke-width=".75353"/><g><rect x="405.93" y="107.27" width="31" height="7.447" ry="2.2035" fill="#5d536c"/><text x="408.43082" y="112.27401" fill="#ffffff" font-family="sans-serif" font-size="3.5278px" stroke-width=".13054" style="line-height:1.25" xml:space="preserve"><tspan x="408.43082" y="112.27401" fill="#ffffff" font-family="'Fira Code'" font-size="3.5278px" stroke-width=".13054">djht:Account</tspan></text><text x="487.03745" y="118.42715" fill="#000000" font-family="sans-serif" font-size="3.5278px" stroke-width=".13054" style="line-height:1.25" xml:space="preserve"><tspan x="487.03745" y="118.42715" font-family="'Fira Code'" font-size="3.5278px" stroke-width=".13054">djht:size</tspan></text></g><path d="m484.16 113.13v8.1683l39.903-0.0417" fill="none" stroke="#000" stroke-linecap="round" stroke-width=".5"/><path transform="matrix(-.549 .12832 .1471 .47889 662.86 63.433)" d="m267.07 52.47c-0.22761 0.22761-6.1352-1.3553-6.2185-1.6662-0.0833-0.31092 4.2413-4.6356 4.5522-4.5522 0.31092 0.08331 1.8938 5.9909 1.6662 6.2185z" fill="#fff" stroke="#000" stroke-linecap="round" stroke-linejoin="round" stroke-width=".75353"/><g><rect x="529.34" y="117.33" width="28.582" height="7.4469" rx="0" ry="0" fill="#005580" stroke="#005580" stroke-linecap="round" stroke-linejoin="round" stroke-width=".5"/><text x="531.95648" y="122.32816" fill="#ffffff" font-family="sans-serif" font-size="3.5278px" stroke-width=".13054" style="line-height:1.25" xml:space="preserve"><tspan x="531.95648" y="122.32816" fill="#ffffff" font-family="'Fira Code'" font-size="3.5278px" stroke-width=".13054">xsd:integer</tspan></text><rect x="471.15" y="93.413" width="24.5" height="7.4469" ry="2.2035" fill="#4b0080"/><text x="473.76239" y="98.415009" fill="#ffffff" font-family="sans-serif" font-size="3.5278px" stroke-width=".13054" style="line-height:1.25" xml:space="preserve"><tspan x="473.76239" y="98.415009" fill="#ffffff" font-family="'Fira Code'" font-size="3.5278px" stroke-width=".13054">djht:File</tspan></text><text x="453.98666" y="139.59383" fill="#000000" font-family="sans-serif" font-size="3.5278px" stroke-width=".13054" style="line-height:1.25" xml:space="preserve"><tspan x="453.98666" y="139.59383" font-family="'Fira Code'" font-size="3.5278px" stroke-width=".13054">created_date</tspan></text><rect x="406.23" y="138.51" width="31" height="7.4469" rx="0" ry="0" fill="#800055" stroke="#800055" stroke-linecap="round" stroke-linejoin="round" stroke-width=".5"/><text x="408.83749" y="143.51596" fill="#ffffff" font-family="sans-serif" font-size="3.5278px" stroke-width=".13054" style="line-height:1.25" xml:space="preserve"><tspan x="408.83749" y="143.51596" fill="#ffffff" font-family="'Fira Code'" font-size="3.5278px" stroke-width=".13054">xsd:dateTime</tspan></text></g><path d="m482.64 134.29v8.1683l-39.903-0.0417" fill="none" stroke="#000" stroke-linecap="round" stroke-width=".5"/><path transform="matrix(.549 .12832 -.1471 .47889 303.94 84.599)" d="m267.07 52.47c-0.22761 0.22761-6.1352-1.3553-6.2185-1.6662-0.0833-0.31092 4.2413-4.6356 4.5522-4.5522 0.31092 0.08331 1.8938 5.9909 1.6662 6.2185z" fill="#fff" stroke="#000" stroke-linecap="round" stroke-linejoin="round" stroke-width=".75353"/><g><rect x="529.34" y="107.27" width="27" height="7.4469" rx="0" ry="0" fill="#800015" stroke="#800015" stroke-linecap="round" stroke-linejoin="round" stroke-width=".5"/><text x="531.95648" y="112.27401" fill="#ffffff" font-family="sans-serif" font-size="3.5278px" stroke-width=".13054" style="line-height:1.25" xml:space="preserve"><tspan x="531.95648" y="112.27401" fill="#ffffff" font-family="'Fira Code'" font-size="3.5278px" stroke-width=".13054">xsd:string</tspan></text><rect x="403.87" y="93.413" width="30.997" height="7.4469" ry="2.2035" fill="#805500"/><text x="406.48001" y="98.415001" fill="#ffffff" font-family="sans-serif" font-size="3.5278px" stroke-width=".13054" style="line-height:1.25" xml:space="preserve"><tspan x="406.48001" y="98.415001" fill="#ffffff" font-family="'Fira Code'" font-size="3.5278px" stroke-width=".13054">djht:Dataset</tspan></text></g><g stroke="#000" stroke-linecap="round"><path d="m437.36 97.137h24.999" fill="none" stroke-width=".5"/><path transform="matrix(-.549 .12832 .1471 .47889 601.31 39.335)" d="m267.07 52.47c-0.22761 0.22761-6.1352-1.3553-6.2185-1.6662-0.0833-0.31092 4.2413-4.6356 4.5522-4.5522 0.31092 0.08331 1.8938 5.9909 1.6662 6.2185z" fill="#fff" stroke-linejoin="round" stroke-width=".75353"/><path transform="matrix(-.549 .12832 .1471 .47889 605.02 39.335)" d="m267.07 52.47c-0.22761 0.22761-6.1352-1.3553-6.2185-1.6662-0.0833-0.31092 4.2413-4.6356 4.5522-4.5522 0.31092 0.08331 1.8938 5.9909 1.6662 6.2185z" fill="#fff" stroke-linejoin="round" stroke-width=".75353"/></g><text x="438.98404" y="94.874245" fill="#000000" font-family="sans-serif" font-size="3.5278px" stroke-width=".13054" style="line-height:1.25" xml:space="preserve"><tspan x="438.98404" y="94.874245" font-family="'Fira Code'" font-size="3.5278px" stroke-width=".13054">djht:files</tspan></text></g></svg>
