<?xml version="1.0" encoding="UTF-8"?>
<svg width="869.29" height="154.02" version="1.1" viewBox="0 0 869.29 154.02" xmlns="http://www.w3.org/2000/svg" font-family="'Fira Code', monospace" font-size="13.333px"><text x="448.39163" y="57.012089" fill="#000" stroke-width="1.3333" xml:space="preserve"><tspan x="448.39163" y="57.012089">djht:title</tspan><tspan x="197.39633" y="10.570952">djht:funding_list</tspan></text><path d="m192.68 18.104h148.56" fill="none" stroke="#000" stroke-linecap="round" stroke-width="1.8898"/><text x="448.39163" y="93.012093" stroke-width="1.3333" xml:space="preserve"><tspan x="448.39163" y="93.012093" fill="#000" stroke-width="1.3333">djht:funder_name</tspan></text><path d="m437.54 72.984v30.871l165.99-0.15733" fill="none" stroke="#000" stroke-linecap="round" stroke-width="1.8898"/><text x="364.80206" y="57.012089" stroke-width="1.3333" xml:space="preserve"><tspan x="364.80206" y="57.012089" fill="#000" stroke-width="1.3333">djht:id</tspan></text><g stroke="#000" stroke-linecap="round"><path d="m265.36 73.652c-0.59848 0.3014-11.979-5.4276-11.979-6.0322-4.1e-4 -0.60343 11.38-6.3328 11.979-6.0308s0.59891 11.76 8e-5 12.063z" fill="#fff" stroke-linejoin="round" stroke-width="1.5118"/><path d="m437.54 36.984v30.871l165.99-0.15733" fill="none" stroke-width="1.8898"/><path d="m431.74 36.984v30.871l-165.12-0.15733" fill="none" stroke-width="1.8898"/></g><text x="298.84644" y="93.012039" stroke-width="1.3333" xml:space="preserve"><tspan x="298.84644" y="93.012039" fill="#000" stroke-width="1.3333">djht:grant_code</tspan></text><path d="m431.74 72.984v30.871l-165.99-0.15733" fill="none" stroke="#000" stroke-linecap="round" stroke-width="1.8898"/><text x="356.54227" y="129.0121" stroke-width="1.3333" xml:space="preserve"><tspan x="356.54227" y="129.0121" fill="#000" stroke-width="1.3333">djht:url</tspan></text><path d="m431.74 108.98v30.871l-165.99-0.15733" fill="none" stroke="#000" stroke-linecap="round" stroke-width="1.8898"/><text x="151.9375" y="71.835907" stroke-width="1.3333" xml:space="preserve"><tspan x="151.9375" y="71.835907" fill="#fff" stroke-width="1.3333">xsd:string</tspan></text><path d="m142.07 88.932h102.05v28.145h-102.05z" fill="#800015" stroke="#800015" stroke-linecap="round" stroke-linejoin="round" stroke-width="1.8898"/><text x="151.9375" y="107.83591" stroke-width="1.3333" xml:space="preserve"><tspan x="151.9375" y="107.83591" fill="#fff" stroke-width="1.3333">xsd:string</tspan></text><g fill="#fff" stroke="#000" stroke-linecap="round" stroke-linejoin="round" stroke-width="1.5118"><path d="m265.36 109.65c-0.59883 0.30257-11.979-5.4276-11.979-6.031-6e-5 -0.6046 11.38-6.334 11.979-6.032s0.5989 11.76 7e-5 12.063z"/><path d="m265.36 145.65c-0.59883 0.30256-11.979-5.4264-11.979-6.031 9.2e-4 -0.60312 11.381-6.3325 11.98-6.0305 0.59889 0.30203 0.59891 11.76-9e-4 12.062z"/><path d="m604.1 109.8c0.59883 0.30257 11.975-5.4267 11.975-6.0312-8.2e-4 -0.59816-11.376-6.3326-11.975-6.0306-0.59889 0.30203-0.59881 11.765-4.4e-4 12.062z"/><path d="m604.1 73.802c0.59883 0.30256 11.973-5.4275 11.974-6.0309 1.6e-4 -0.59963-11.376-6.3338-11.975-6.0318s-0.59881 11.765 1e-3 12.063z"/></g><path d="m384.42 4.4533h101.49c4.6147 0 8.328 3.7133 8.328 8.328v11.489c0 4.6147-3.7133 8.328-8.328 8.328h-101.49c-4.6147 0-8.328-3.7133-8.328-8.328v-11.489c0-4.6147 3.7133-8.328 8.328-8.328z" fill="#536c5d"/><text x="385.96677" y="23.356323" stroke-width="1.3333" xml:space="preserve"><tspan x="385.96677" y="23.356323" fill="#fff" stroke-width="1.3333">djht:Funding</tspan></text><path d="m75.276 4.4533h100.5c4.6093 0 8.328 3.7133 8.328 8.328v11.489c0 4.6147-3.7187 8.328-8.328 8.328h-100.5c-4.6147 0-8.3293-3.7133-8.3293-8.328v-11.489c0-4.6147 3.7147-8.328 8.3293-8.328z" fill="#805500"/><text x="76.820999" y="23.356295" stroke-width="1.3333" xml:space="preserve"><tspan x="76.820999" y="23.356295" fill="#fff" stroke-width="1.3333">djht:Dataset</tspan></text><g stroke-linecap="round" stroke-linejoin="round"><path d="m341.89 24.239c0.59883 0.30256 11.975-5.4267 11.975-6.0313-9.2e-4 -0.60312-11.376-6.3326-11.975-6.0306s-0.5989 11.76-4.3e-4 12.062z" fill="#fff" stroke="#000" stroke-width="1.5118"/><path d="m355.89 24.239c0.59883 0.30256 11.974-5.4263 11.974-6.0309 4.1e-4 -0.60343-11.374-6.3329-11.973-6.0309s-0.59891 11.76-4.4e-4 12.062z" fill="#fff" stroke="#000" stroke-width="1.5118"/><path d="m136.09 52.932h108.03v28.145h-108.03z" fill="#005580" stroke="#005580" stroke-width="1.8898"/></g><text x="145.9649" y="71.83596" stroke-width="1.3333" xml:space="preserve"><tspan x="145.9649" y="71.83596" fill="#fff" stroke-width="1.3333">xsd:integer</tspan></text><path d="m142.07 124.93h102.05v28.145h-102.05z" fill="#800015" stroke="#800015" stroke-linecap="round" stroke-linejoin="round" stroke-width="1.8898"/><text x="151.9375" y="143.83589" stroke-width="1.3333" xml:space="preserve"><tspan x="151.9375" y="143.83589" fill="#fff" stroke-width="1.3333">xsd:string</tspan></text><path d="m626.85 52.932h102.05v28.145h-102.05z" fill="#800015" stroke="#800015" stroke-linecap="round" stroke-linejoin="round" stroke-width="1.8898"/><text x="636.72174" y="71.835846" stroke-width="1.3333" xml:space="preserve"><tspan x="636.72174" y="71.835846" fill="#fff" stroke-width="1.3333">xsd:string</tspan></text><path d="m626.85 88.932h102.05v28.145h-102.05z" fill="#800015" stroke="#800015" stroke-linecap="round" stroke-linejoin="round" stroke-width="1.8898"/><text x="636.72174" y="107.83579" stroke-width="1.3333" xml:space="preserve"><tspan x="636.72174" y="107.83579" fill="#fff" stroke-width="1.3333">xsd:string</tspan></text><text x="448.39163" y="129.01207" stroke-width="1.3333" xml:space="preserve"><tspan x="448.39163" y="129.01207" fill="#000" stroke-width="1.3333">djht:is_user_defined</tspan></text><g stroke-linecap="round"><path d="m437.54 108.98v30.871l165.99-0.15733" fill="none" stroke="#000" stroke-width="1.8898"/><path d="m604.1 145.8c0.59847 0.3014 11.975-5.4278 11.974-6.0309 1.6e-4 -0.59964-11.375-6.3341-11.974-6.0321s-0.59881 11.765-8e-5 12.063z" fill="#fff" stroke="#000" stroke-linejoin="round" stroke-width="1.5118"/><path d="m626.85 124.93h108.03v28.145h-108.03z" fill="#005580" stroke="#005580" stroke-linejoin="round" stroke-width="1.8898"/></g><text x="636.72095" y="143.83589" stroke-width="1.3333" xml:space="preserve"><tspan x="636.72095" y="143.83589" fill="#fff" stroke-width="1.3333">xsd:integer</tspan></text></svg>
