<?xml version="1.0" encoding="UTF-8"?>
<svg width="230mm" height="33.461mm" version="1.1" viewBox="0 0 230 33.461" xmlns="http://www.w3.org/2000/svg" font-family="'Fira Code', monospace" font-size="3.5278px"><g transform="translate(-302.8 -92.091)"><text x="377.84268" y="108.37272" fill="#000" stroke-width=".13054" style="line-height:1.25" xml:space="preserve"><tspan x="377.84268" y="108.37272" stroke-width=".13054">djht:expires_date</tspan></text><text x="421.41943" y="108.37299" fill="#000" stroke-width=".13054" style="line-height:1.25" xml:space="preserve"><tspan x="421.41943" y="108.37299" stroke-width=".13054">djht:anonymize</tspan></text><g stroke="#000" stroke-linecap="round"><path d="m417.07 103.07v8.1683l-36.007-0.0417" fill="none" stroke-width=".5"/><path transform="matrix(.549 .12832 -.1471 .47889 242.03 53.418)" d="m267.07 52.47c-0.22761 0.22761-6.1352-1.3553-6.2185-1.6662-0.0833-0.31092 4.2413-4.6356 4.5522-4.5522 0.31092 0.08331 1.8938 5.9909 1.6662 6.2185z" fill="#fff" stroke-linejoin="round" stroke-width=".75353"/><path transform="matrix(.549 .12832 -.1471 .47889 238.32 53.418)" d="m267.07 52.47c-0.22761 0.22761-6.1352-1.3553-6.2185-1.6662-0.0833-0.31092 4.2413-4.6356 4.5522-4.5522 0.31092 0.08331 1.8938 5.9909 1.6662 6.2185z" fill="#fff" stroke-linejoin="round" stroke-width=".75353"/><path d="m418.55 103.07v8.1683l39.903-0.0417" fill="none" stroke-width=".5"/><path transform="matrix(-.549 .12832 .1471 .47889 597.24 53.378)" d="m267.07 52.47c-0.22761 0.22761-6.1352-1.3553-6.2185-1.6662-0.0833-0.31092 4.2413-4.6356 4.5522-4.5522 0.31092 0.08331 1.8938 5.9909 1.6662 6.2185z" fill="#fff" stroke-linejoin="round" stroke-width=".75353"/></g><text x="421.41943" y="118.95633" fill="#000" stroke-width=".13054" style="line-height:1.25" xml:space="preserve"><tspan x="421.41943" y="118.95633" stroke-width=".13054">djht:is_active</tspan></text><path d="m418.55 113.66v8.1683l39.903-0.0417" fill="none" stroke="#000" stroke-linecap="round" stroke-width=".5"/><path transform="matrix(-.549 .12832 .1471 .47889 597.24 63.962)" d="m267.07 52.47c-0.22761 0.22761-6.1352-1.3553-6.2185-1.6662-0.0833-0.31092 4.2413-4.6356 4.5522-4.5522 0.31092 0.08331 1.8938 5.9909 1.6662 6.2185z" fill="#fff" stroke="#000" stroke-linecap="round" stroke-linejoin="round" stroke-width=".75353"/><text x="390.78873" y="118.95633" fill="#000" stroke-width=".13054" style="line-height:1.25" xml:space="preserve"><tspan x="390.78873" y="118.95633" stroke-width=".13054">djht:suffix</tspan></text><path d="m417.02 113.66v8.1683l-27.171-0.0417" fill="none" stroke="#000" stroke-linecap="round" stroke-width=".5"/><path transform="matrix(.549 .12832 -.1471 .47889 250.5 63.962)" d="m267.07 52.47c-0.22761 0.22761-6.1352-1.3553-6.2185-1.6662-0.0833-0.31092 4.2413-4.6356 4.5522-4.5522 0.31092 0.08331 1.8938 5.9909 1.6662 6.2185z" fill="#fff" stroke="#000" stroke-linecap="round" stroke-linejoin="round" stroke-width=".75353"/><g><rect x="356.83" y="117.86" width="27" height="7.4469" rx="0" ry="0" fill="#800015" stroke="#800015" stroke-linecap="round" stroke-linejoin="round" stroke-width=".5"/><text x="359.44696" y="122.85735" fill="#fff" stroke-width=".13054" style="line-height:1.25" xml:space="preserve"><tspan x="359.44696" y="122.85735" fill="#fff" stroke-width=".13054">xsd:string</tspan></text><rect x="397.91" y="93.413" width="39.75" height="7.4469" ry="2.2035" fill="#000080"/><text x="400.51941" y="98.415009" fill="#fff" stroke-width=".13054" style="line-height:1.25" xml:space="preserve"><tspan x="400.51941" y="98.415009" fill="#fff" stroke-width=".13054">djht:PrivateLink</tspan></text><rect x="463.73" y="107.27" width="28.582" height="7.447" rx="0" ry="0" fill="#4d4d4d" stroke="#4d4d4d" stroke-linecap="round" stroke-linejoin="round" stroke-width=".5"/><text x="466.3385" y="112.27402" fill="#fff" stroke-width=".13054" style="line-height:1.25" xml:space="preserve"><tspan x="466.3385" y="112.27402" fill="#fff" stroke-width=".13054">xsd:boolean</tspan></text><rect x="340.06" y="107.27" width="31" height="7.4469" rx="0" ry="0" fill="#800055" stroke="#800055" stroke-linecap="round" stroke-linejoin="round" stroke-width=".5"/><text x="342.67609" y="112.27402" fill="#fff" stroke-width=".13054" style="line-height:1.25" xml:space="preserve"><tspan x="342.67609" y="112.27402" fill="#fff" stroke-width=".13054">xsd:dateTime</tspan></text><rect x="463.73" y="117.86" width="28.582" height="7.447" rx="0" ry="0" fill="#4d4d4d" stroke="#4d4d4d" stroke-linecap="round" stroke-linejoin="round" stroke-width=".5"/><text x="466.3385" y="122.85735" fill="#fff" stroke-width=".13054" style="line-height:1.25" xml:space="preserve"><tspan x="466.3385" y="122.85735" fill="#fff" stroke-width=".13054">xsd:boolean</tspan></text><rect x="314.97" y="93.427" width="30.997" height="7.4469" ry="2.2035" fill="#805500"/><text x="317.57922" y="98.429016" fill="#fff" stroke-width=".13054" style="line-height:1.25" xml:space="preserve"><tspan x="317.57922" y="98.429016" fill="#fff" stroke-width=".13054">djht:Dataset</tspan></text></g><g stroke="#000" stroke-linecap="round"><path d="m348.05 97.151h40.755" fill="none" stroke-width=".5"/><path transform="matrix(-.549 .12832 .1471 .47889 527.76 39.349)" d="m267.07 52.47c-0.22761 0.22761-6.1352-1.3553-6.2185-1.6662-0.0833-0.31092 4.2413-4.6356 4.5522-4.5522 0.31092 0.08331 1.8938 5.9909 1.6662 6.2185z" fill="#fff" stroke-linejoin="round" stroke-width=".75353"/><path transform="matrix(-.549 .12832 .1471 .47889 531.46 39.349)" d="m267.07 52.47c-0.22761 0.22761-6.1352-1.3553-6.2185-1.6662-0.0833-0.31092 4.2413-4.6356 4.5522-4.5522 0.31092 0.08331 1.8938 5.9909 1.6662 6.2185z" fill="#fff" stroke-linejoin="round" stroke-width=".75353"/></g><text x="348.49573" y="94.88826" fill="#000" stroke-width=".13054" style="line-height:1.25" xml:space="preserve"><tspan x="348.49573" y="94.88826" stroke-width=".13054">djht:private_links</tspan></text></g></svg>
