<?xml version="1.0" encoding="UTF-8"?>
<svg width="230mm" height="98.313mm" version="1.1" viewBox="0 0 230 98.313" xmlns="http://www.w3.org/2000/svg" font-family="'Fira Code', monospace" font-size="3.5278px"><g transform="translate(-65.086 -65.358)"><g><g stroke="#ccc" stroke-linecap="round" stroke-linejoin="round" stroke-width=".4"><rect x="108.6" y="65.558" width="142.97" height="79.554" ry="1" fill="#f9f9f9" stroke-dasharray="1.2, 1.2"/><rect x="108.6" y="149.91" width="142.97" height="13.565" ry="1" fill="#f9f9f9" stroke-dasharray="1.2, 1.2"/><path transform="matrix(.26458 0 0 .26458 75.849 -6.283)" d="m411.3 566.97c1.7338 3.003-13.87 30.03-17.338 30.03s-19.071-27.027-17.338-30.03c1.7338-3.003 32.942-3.003 34.675 0z" fill="#ccc"/></g><text x="137.65549" y="154.85133" fill="#000" stroke-width=".13054" style="line-height:1.25" xml:space="preserve"><tspan x="137.65549" y="154.85133" stroke-width=".13054">predicate</tspan></text></g><g stroke-linecap="round" stroke-linejoin="round"><path d="m157.87 156.66-21.028-0.0417" fill="none" stroke="#000" stroke-width=".5"/><path transform="matrix(-.549 .12832 .1471 .47889 296.96 98.84)" d="m267.07 52.47c-0.22761 0.22761-6.1352-1.3553-6.2185-1.6662-0.0833-0.31092 4.2413-4.6356 4.5522-4.5522 0.31092 0.08331 1.8938 5.9909 1.6662 6.2185z" fill="#fff" stroke="#000" stroke-width=".75353"/><rect x="114.97" y="152.92" width="20.392" height="7.4469" ry="2.2035" fill="#f2f2f2" stroke="#4d4d4d" stroke-width=".5"/></g><text x="117.58304" y="157.9196" fill="#000" stroke-width=".13054" style="line-height:1.25" xml:space="preserve"><tspan x="117.58304" y="157.9196" stroke-width=".13054">subject</tspan></text><path transform="matrix(-.549 .12832 .1471 .47889 300.67 98.84)" d="m267.07 52.47c-0.22761 0.22761-6.1352-1.3553-6.2185-1.6662-0.0833-0.31092 4.2413-4.6356 4.5522-4.5522 0.31092 0.08331 1.8938 5.9909 1.6662 6.2185z" fill="#fff" stroke="#000" stroke-linecap="round" stroke-linejoin="round" stroke-width=".75353"/><rect x="165.77" y="152.92" width="30.997" height="7.4469" ry="2.2035" fill="#805500"/><text x="168.38301" y="157.9196" fill="#fff" stroke-width=".13054" style="line-height:1.25" xml:space="preserve"><tspan x="168.38301" y="157.9196" fill="#fff" stroke-width=".13054">djht:Dataset</tspan></text><rect x="171.01" y="91.005" width="15.841" height="7.4469" ry="2.2035" fill="#f2f2f2" stroke="#4d4d4d" stroke-dasharray="1.5, 1.5" stroke-linecap="round" stroke-linejoin="round" stroke-width=".5"/><text x="173.37512" y="96.007141" fill="#000" stroke-width=".13054" style="line-height:1.25" xml:space="preserve"><tspan x="173.37512" y="96.007141" stroke-width=".13054">blank</tspan></text><rect x="166.51" y="69.31" width="24.844" height="7.4469" ry="2.203" fill="#f2f2f2" stroke="#4d4d4d" stroke-linecap="round" stroke-linejoin="round" stroke-width=".5"/><text x="169.11833" y="74.311241" fill="#000" stroke-width=".13054" style="line-height:1.25" xml:space="preserve"><tspan x="169.11833" y="74.311241" fill="#000" stroke-width=".13054">rdfs:List</tspan></text><text x="180.19493" y="104.67375" fill="#000" stroke-width=".13054" style="line-height:1.25" xml:space="preserve"><tspan x="180.19493" y="104.67375" stroke-width=".13054">rdf:rest</tspan></text><path d="m178.91 107.38 0.0417-7.2724" fill="none" stroke="#000" stroke-linecap="round" stroke-linejoin="round" stroke-width=".5"/><path transform="matrix(-.12832 -.549 -.47889 .1471 236.73 246.47)" d="m267.07 52.47c-0.22761 0.22761-6.1352-1.3553-6.2185-1.6662-0.0833-0.31092 4.2413-4.6356 4.5522-4.5522 0.31092 0.08331 1.8938 5.9909 1.6662 6.2185z" stroke="#000" stroke-linecap="round" stroke-linejoin="round" stroke-width=".75353"/><text x="180.19493" y="125.84038" fill="#000" stroke-width=".13054" style="line-height:1.25" xml:space="preserve"><tspan x="180.19493" y="125.84038" stroke-width=".13054">rdf:rest</tspan></text><g stroke-linecap="round" stroke-linejoin="round"><path d="m178.91 128.55 0.0417-7.2724" fill="none" stroke="#000" stroke-width=".5"/><path transform="matrix(-.12832 -.549 -.47889 .1471 236.73 267.64)" d="m267.07 52.47c-0.22761 0.22761-6.1352-1.3553-6.2185-1.6662-0.0833-0.31092 4.2413-4.6356 4.5522-4.5522 0.31092 0.08331 1.8938 5.9909 1.6662 6.2185z" stroke="#000" stroke-width=".75353"/><rect x="168.91" y="133.87" width="20.027" height="7.4469" rx="0" ry="2.203" fill="#e3dbdb" stroke="#e3dbdb" stroke-width=".5"/></g><text x="171.31364" y="138.86961" fill="#782121" stroke-width=".13054" style="line-height:1.25" xml:space="preserve"><tspan x="171.31364" y="138.86961" fill="#782121" stroke-width=".13054">rdf:nil</tspan></text><text x="189.71996" y="93.468155" fill="#000" stroke-width=".13054" style="line-height:1.25" xml:space="preserve"><tspan x="189.71996" y="93.468155" stroke-width=".13054">rdf:first</tspan></text><path d="m209.94 95.279-21.028-0.0417" fill="none" stroke="#000" stroke-linecap="round" stroke-linejoin="round" stroke-width=".5"/><path transform="matrix(-.549 .12832 .1471 .47889 349.03 37.456)" d="m267.07 52.47c-0.22761 0.22761-6.1352-1.3553-6.2185-1.6662-0.0833-0.31092 4.2413-4.6356 4.5522-4.5522 0.31092 0.08331 1.8938 5.9909 1.6662 6.2185z" fill="#fff" stroke="#000" stroke-linecap="round" stroke-linejoin="round" stroke-width=".75353"/><g><rect x="214.66" y="91.535" width="30.997" height="7.4469" ry="2.2035" fill="#805500"/><text x="217.27254" y="96.53624" fill="#fff" stroke-width=".13054" style="line-height:1.25" xml:space="preserve"><tspan x="217.27254" y="96.53624" fill="#fff" stroke-width=".13054">djht:Dataset</tspan></text><text x="189.71996" y="114.72789" fill="#000" stroke-width=".13054" style="line-height:1.25" xml:space="preserve"><tspan x="189.71996" y="114.72789" stroke-width=".13054">rdf:first</tspan></text></g><path d="m209.94 116.54-21.028-0.0417" fill="none" stroke="#000" stroke-linecap="round" stroke-linejoin="round" stroke-width=".5"/><path transform="matrix(-.549 .12832 .1471 .47889 349.03 58.716)" d="m267.07 52.47c-0.22761 0.22761-6.1352-1.3553-6.2185-1.6662-0.0833-0.31092 4.2413-4.6356 4.5522-4.5522 0.31092 0.08331 1.8938 5.9909 1.6662 6.2185z" fill="#fff" stroke="#000" stroke-linecap="round" stroke-linejoin="round" stroke-width=".75353"/><g><rect x="214.66" y="112.7" width="30.997" height="7.4469" ry="2.2035" fill="#805500"/><text x="217.27254" y="117.70293" fill="#fff" stroke-width=".13054" style="line-height:1.25" xml:space="preserve"><tspan x="217.27254" y="117.70293" fill="#fff" stroke-width=".13054">djht:Dataset</tspan></text><text x="147.38658" y="114.72789" fill="#000" stroke-width=".13054" style="line-height:1.25" xml:space="preserve"><tspan x="147.38658" y="114.72789" stroke-width=".13054">djht:index</tspan></text></g><g stroke-linecap="round" stroke-linejoin="round"><path d="m146.59 116.54 22.75-0.0417" fill="none" stroke="#000" stroke-width=".5"/><path transform="matrix(.549 .12832 -.1471 .47889 7.629 58.716)" d="m267.07 52.47c-0.22761 0.22761-6.1352-1.3553-6.2185-1.6662-0.0833-0.31092 4.2413-4.6356 4.5522-4.5522 0.31092 0.08331 1.8938 5.9909 1.6662 6.2185z" fill="#fff" stroke="#000" stroke-width=".75353"/><rect x="113.18" y="112.27" width="28.582" height="7.4469" rx="0" ry="0" fill="#005580" stroke="#005580" stroke-width=".5"/></g><text x="115.78941" y="117.26689" fill="#fff" stroke-width=".13054" style="line-height:1.25" xml:space="preserve"><tspan x="115.78941" y="117.26689" fill="#fff" stroke-width=".13054">xsd:integer</tspan></text><rect x="171.01" y="112.17" width="15.841" height="7.4469" ry="2.2035" fill="#f2f2f2" stroke="#4d4d4d" stroke-dasharray="1.5, 1.5" stroke-linecap="round" stroke-linejoin="round" stroke-width=".5"/><g fill="#000" stroke-width=".13054"><text x="173.37512" y="117.17381" stroke-dasharray="3, 3" style="line-height:1.25" xml:space="preserve"><tspan x="173.37512" y="117.17381" stroke-dasharray="3, 3" stroke-width=".13054">blank</tspan></text><text x="180.19498" y="87.211243" style="line-height:1.25" xml:space="preserve"><tspan x="180.19498" y="87.211243" stroke-width=".13054">rdf:type</tspan></text><text x="147.38658" y="93.555405" style="line-height:1.25" xml:space="preserve"><tspan x="147.38658" y="93.555405" stroke-width=".13054">djht:index</tspan></text></g><g stroke-linecap="round" stroke-linejoin="round"><path d="m146.59 95.366 22.75-0.0417" fill="none" stroke="#000" stroke-width=".5"/><path transform="matrix(.549 .12832 -.1471 .47889 7.629 37.544)" d="m267.07 52.47c-0.22761 0.22761-6.1352-1.3553-6.2185-1.6662-0.0833-0.31092 4.2413-4.6356 4.5522-4.5522 0.31092 0.08331 1.8938 5.9909 1.6662 6.2185z" fill="#fff" stroke="#000" stroke-width=".75353"/><rect x="113.18" y="91.093" width="28.582" height="7.4469" rx="0" ry="0" fill="#005580" stroke="#005580" stroke-width=".5"/></g><text x="115.78941" y="96.094406" fill="#fff" stroke-width=".13054" style="line-height:1.25" xml:space="preserve"><tspan x="115.78941" y="96.094406" fill="#fff" stroke-width=".13054">xsd:integer</tspan></text><path d="m178.95 82.261-0.0417 7.2724" fill="none" stroke="#000" stroke-linecap="round" stroke-linejoin="round" stroke-width=".5"/><path transform="matrix(.12832 .549 .47889 -.1471 121.13 -56.831)" d="m267.07 52.47c-0.22761 0.22761-6.1352-1.3553-6.2185-1.6662-0.0833-0.31092 4.2413-4.6356 4.5522-4.5522 0.31092 0.08331 1.8938 5.9909 1.6662 6.2185z" stroke="#000" stroke-linecap="round" stroke-linejoin="round" stroke-width=".75353"/><text x="141.56581" y="85.094574" fill="#000" stroke-width=".13054" style="line-height:1.25" xml:space="preserve"><tspan x="141.56581" y="85.094574" stroke-width=".13054">predicate</tspan></text><g stroke-linecap="round" stroke-linejoin="round"><path d="m167.97 88.15-8.1128-8.1717" fill="none" stroke="#000" stroke-width=".5"/><path transform="matrix(-.47894 -.29747 -.23461 .44264 307.2 145.62)" d="m267.07 52.47c-0.22761 0.22761-6.1352-1.3553-6.2185-1.6662-0.0833-0.31092 4.2413-4.6356 4.5522-4.5522 0.31092 0.08331 1.8938 5.9909 1.6662 6.2185z" stroke="#000" stroke-width=".75353"/><rect x="138.99" y="71.955" width="20.071" height="7.4469" ry="2.203" fill="#f2f2f2" stroke="#4d4d4d" stroke-width=".5"/></g><text x="141.60167" y="76.957077" fill="#000" stroke-width=".13054" style="line-height:1.25" xml:space="preserve"><tspan x="141.60167" y="76.957077" fill="#000" stroke-width=".13054">subject</tspan></text></g></svg>
