<?xml version="1.0" encoding="UTF-8"?>
<svg width="230mm" height="33.015mm" version="1.1" viewBox="0 0 230 33.015" xmlns="http://www.w3.org/2000/svg"><g transform="translate(-32.713 -62.442)"><rect x="76.229" y="62.642" width="142.97" height="13.565" ry="1" fill="#f9f9f9" stroke="#ccc" stroke-dasharray="1.2, 1.2" stroke-linecap="round" stroke-linejoin="round" stroke-width=".4"/><text x="105.28214" y="67.586288" fill="#000000" font-family="sans-serif" font-size="3.5278px" stroke-width=".13054" style="line-height:1.25" xml:space="preserve"><tspan x="105.28214" y="67.586288" font-family="'Fira Code'" font-size="3.5278px" stroke-width=".13054">predicate</tspan></text><g stroke-linecap="round" stroke-linejoin="round"><path d="m125.5 69.397-21.028-0.0417" fill="none" stroke="#000" stroke-width=".5"/><path transform="matrix(-.549 .12832 .1471 .47889 264.59 11.575)" d="m267.07 52.47c-0.22761 0.22761-6.1352-1.3553-6.2185-1.6662-0.0833-0.31092 4.2413-4.6356 4.5522-4.5522 0.31092 0.08331 1.8938 5.9909 1.6662 6.2185z" stroke="#000" stroke-width=".75353"/><rect x="82.598" y="65.653" width="20.392" height="7.4469" ry="2.2035" fill="#f2f2f2" stroke="#4d4d4d" stroke-width=".5"/></g><text x="85.209694" y="70.654411" fill="#000000" font-family="sans-serif" font-size="3.5278px" stroke-width=".13054" style="line-height:1.25" xml:space="preserve"><tspan x="85.209694" y="70.654411" font-family="'Fira Code'" font-size="3.5278px" stroke-width=".13054">subject</tspan></text><rect x="130.22" y="65.653" width="17.937" height="7.4469" rx="0" ry="0" fill="#f9f9f9" stroke="#999" stroke-linecap="round" stroke-linejoin="round" stroke-width=".5"/><g><text x="132.8347" y="70.654411" fill="#000000" font-family="sans-serif" font-size="3.5278px" stroke-width=".13054" style="line-height:1.25" xml:space="preserve"><tspan x="132.8347" y="70.654411" font-family="'Fira Code'" font-size="3.5278px" stroke-width=".13054">123456</tspan></text><rect x="154.56" y="65.653" width="28.582" height="7.4469" rx="0" ry="2.203" fill="#f2f2f2" stroke="#4d4d4d" stroke-linecap="round" stroke-linejoin="round" stroke-width=".5"/><text x="157.17636" y="70.654411" fill="#000000" font-family="sans-serif" font-size="3.5278px" stroke-width=".13054" style="line-height:1.25" xml:space="preserve"><tspan x="157.17636" y="70.654411" fill="#000000" font-family="'Fira Code'" font-size="3.5278px" stroke-width=".13054">xsd:integer</tspan></text><text x="149.20296" y="67.586288" fill="#000000" font-family="sans-serif" font-size="3.5278px" stroke-width=".13054" style="line-height:1.25" xml:space="preserve"><tspan x="149.20296" y="67.586288" font-family="'Fira Code'" font-size="3.5278px" stroke-width=".13054">^^</tspan></text><rect x="76.229" y="81.692" width="142.97" height="13.565" ry="1" fill="#f9f9f9" stroke="#ccc" stroke-dasharray="1.2, 1.2" stroke-linecap="round" stroke-linejoin="round" stroke-width=".4"/><text x="105.28214" y="86.636368" fill="#000000" font-family="sans-serif" font-size="3.5278px" stroke-width=".13054" style="line-height:1.25" xml:space="preserve"><tspan x="105.28214" y="86.636368" font-family="'Fira Code'" font-size="3.5278px" stroke-width=".13054">predicate</tspan></text></g><g stroke-linecap="round" stroke-linejoin="round"><path d="m125.5 88.447-21.028-0.0417" fill="none" stroke="#000" stroke-width=".5"/><path transform="matrix(-.549 .12832 .1471 .47889 264.59 30.625)" d="m267.07 52.47c-0.22761 0.22761-6.1352-1.3553-6.2185-1.6662-0.0833-0.31092 4.2413-4.6356 4.5522-4.5522 0.31092 0.08331 1.8938 5.9909 1.6662 6.2185z" fill="#fff" stroke="#000" stroke-width=".75353"/><rect x="82.598" y="84.703" width="20.392" height="7.4469" ry="2.2035" fill="#f2f2f2" stroke="#4d4d4d" stroke-width=".5"/></g><g><text x="85.209694" y="89.704414" fill="#000000" font-family="sans-serif" font-size="3.5278px" stroke-width=".13054" style="line-height:1.25" xml:space="preserve"><tspan x="85.209694" y="89.704414" font-family="'Fira Code'" font-size="3.5278px" stroke-width=".13054">subject</tspan></text><path transform="matrix(.26458 0 0 .26458 43.476 -75.027)" d="m411.3 566.97c1.7338 3.003-13.87 30.03-17.338 30.03s-19.071-27.027-17.338-30.03c1.7338-3.003 32.942-3.003 34.675 0z" fill="#ccc" stroke="#ccc" stroke-linecap="round" stroke-linejoin="round" stroke-width=".4"/><rect x="130.22" y="84.703" width="28.582" height="7.4469" rx="0" ry="0" fill="#005580" stroke="#005580" stroke-linecap="round" stroke-linejoin="round" stroke-width=".5"/><text x="132.83469" y="89.704414" fill="#ffffff" font-family="sans-serif" font-size="3.5278px" stroke-width=".13054" style="line-height:1.25" xml:space="preserve"><tspan x="132.83469" y="89.704414" fill="#ffffff" font-family="'Fira Code'" font-size="3.5278px" stroke-width=".13054">xsd:integer</tspan></text></g></g></svg>
