<?xml version="1.0" encoding="UTF-8"?>
<svg width="230mm" height="33.015mm" version="1.1" viewBox="0 0 230 33.015" xmlns="http://www.w3.org/2000/svg" font-family="'Fira Code', monospace" font-size="3.5278px"><g transform="translate(-6.3962 -91.94)"><rect x="49.912" y="92.14" width="142.97" height="13.565" ry="1" fill="#f9f9f9" stroke="#ccc" stroke-dasharray="1.2, 1.2" stroke-linecap="round" stroke-linejoin="round" stroke-width=".4"/><text x="78.965691" y="97.083817" fill="#000" stroke-width=".13054" style="line-height:1.25" xml:space="preserve"><tspan x="78.965691" y="97.083817" stroke-width=".13054">predicate</tspan></text><g stroke-linecap="round" stroke-linejoin="round"><path d="m99.183 98.895-21.028-0.0417" fill="none" stroke="#000" stroke-width=".5"/><path transform="matrix(-.549 .12832 .1471 .47889 238.27 41.072)" d="m267.07 52.47c-0.22761 0.22761-6.1352-1.3553-6.2185-1.6662-0.0833-0.31092 4.2413-4.6356 4.5522-4.5522 0.31092 0.08331 1.8938 5.9909 1.6662 6.2185z" stroke="#000" stroke-width=".75353"/><rect x="56.281" y="95.15" width="20.392" height="7.4469" ry="2.2035" fill="#f2f2f2" stroke="#4d4d4d" stroke-width=".5"/></g><text x="58.893234" y="100.15192" fill="#000" stroke-width=".13054" style="line-height:1.25" xml:space="preserve"><tspan x="58.893234" y="100.15192" stroke-width=".13054">subject</tspan></text><rect x="103.91" y="95.15" width="17.937" height="7.4469" ry="2.2035" fill="#f2f2f2" stroke="#4d4d4d" stroke-linecap="round" stroke-linejoin="round" stroke-width=".5"/><text x="106.51824" y="100.15192" fill="#000" stroke-width=".13054" style="line-height:1.25" xml:space="preserve"><tspan x="106.51824" y="100.15192" stroke-width=".13054">object</tspan></text><text x="125.00321" y="97.083817" fill="#000" stroke-width=".13054" style="line-height:1.25" xml:space="preserve"><tspan x="125.00321" y="97.083817" stroke-width=".13054">rdf:type</tspan></text><g stroke-linecap="round" stroke-linejoin="round"><path d="m144.16 98.895-21.028-0.0417" fill="none" stroke="#000" stroke-width=".5"/><path transform="matrix(-.549 .12832 .1471 .47889 283.25 41.072)" d="m267.07 52.47c-0.22761 0.22761-6.1352-1.3553-6.2185-1.6662-0.0833-0.31092 4.2413-4.6356 4.5522-4.5522 0.31092 0.08331 1.8938 5.9909 1.6662 6.2185z" stroke="#000" stroke-width=".75353"/><rect x="148.89" y="95.15" width="33.501" height="7.4469" ry="2.203" fill="#f2f2f2" stroke="#4d4d4d" stroke-width=".5"/></g><g><text x="151.49739" y="100.15192" fill="#000" stroke-width=".13054" style="line-height:1.25" xml:space="preserve"><tspan x="151.49739" y="100.15192" stroke-width=".13054">rdfs:Resource</tspan></text><rect x="49.912" y="111.19" width="142.97" height="13.565" ry="1" fill="#f9f9f9" stroke="#ccc" stroke-dasharray="1.2, 1.2" stroke-linecap="round" stroke-linejoin="round" stroke-width=".4"/><text x="78.965691" y="116.13379" fill="#000" stroke-width=".13054" style="line-height:1.25" xml:space="preserve"><tspan x="78.965691" y="116.13379" stroke-width=".13054">predicate</tspan></text></g><g stroke-linecap="round" stroke-linejoin="round"><path d="m99.183 117.94-21.028-0.0417" fill="none" stroke="#000" stroke-width=".5"/><path transform="matrix(-.549 .12832 .1471 .47889 238.27 60.122)" d="m267.07 52.47c-0.22761 0.22761-6.1352-1.3553-6.2185-1.6662-0.0833-0.31092 4.2413-4.6356 4.5522-4.5522 0.31092 0.08331 1.8938 5.9909 1.6662 6.2185z" fill="#fff" stroke="#000" stroke-width=".75353"/><rect x="56.281" y="114.2" width="20.392" height="7.4469" ry="2.2035" fill="#f2f2f2" stroke="#4d4d4d" stroke-width=".5"/></g><text x="58.893234" y="119.20192" fill="#000" stroke-width=".13054" style="line-height:1.25" xml:space="preserve"><tspan x="58.893234" y="119.20192" stroke-width=".13054">subject</tspan></text><rect x="103.91" y="114.2" width="33.501" height="7.4469" ry="2.2035" fill="#2b8000"/><text x="106.51822" y="119.20192" fill="#fff" stroke-width=".13054" style="line-height:1.25" xml:space="preserve"><tspan x="106.51822" y="119.20192" fill="#fff" stroke-width=".13054">rdfs:Resource</tspan></text><path transform="matrix(.26458 0 0 .26458 17.159 -45.53)" d="m411.3 566.97c1.7338 3.003-13.87 30.03-17.338 30.03s-19.071-27.027-17.338-30.03c1.7338-3.003 32.942-3.003 34.675 0z" fill="#ccc" stroke="#ccc" stroke-linecap="round" stroke-linejoin="round" stroke-width=".4"/></g></svg>
