<?xml version="1.0" encoding="UTF-8"?>
<svg width="128" height="128" version="1.1" viewBox="0 0 128 128" xmlns="http://www.w3.org/2000/svg"><g transform="matrix(1.9538 0 0 1.9538 64 61.675)"><g stroke="#afa9ec" stroke-dasharray="1.77778,1.33333" stroke-width="1.6"><line x1="-25.721" x2="-17.159" y1="3.4541" y2="-24.606"/><line x1="18.193" x2="26.756" y1="-21.975" y2="6.0854"/><line x2="-17" y1="-26.72" y2="-23.09"/><line x2="17" y1="-26.72" y2="-23.09"/></g><g stroke="#7f77dd" stroke-linecap="round" stroke-width="2.2"><line x1="4.4883" x2="11.67" y1="9.1076" y2="21.39"/><line x1="-4.4883" x2="-11.67" y1="9.1076" y2="21.39"/><line x1="-12.78" x2="-26.822" y1="4.6579" y2="6.1721"/><line x1="13.425" x2="26.864" y1="4.6155" y2="6.2145"/><line x1="5.9536" x2="17.885" y1="-8.9115" y2="-23.328"/><line y1="-16.521" y2="-25.991"/><line x1="-5.3343" x2="-17.266" y1="-8.4619" y2="-22.878"/></g><g fill="#534ab7"><circle cx="28.95" cy="6.6" r="3.55"/><circle cx="-28.95" cy="6.6" r="3.55"/><circle cy="-27.36" r="3.95"/><circle cx="19.2" cy="-24.98" r="3.55"/><circle cx="-19.2" cy="-24.98" r="3.55"/></g><g transform="translate(0,2)" stroke="#534ab7" stroke-linejoin="round" stroke-width="1.5"><polygon points="5 4 0 -13 -10 4" fill="#cecbf6"/><polygon points="5 4 11 1 0 -13" fill="#7f77dd"/></g><polygon transform="matrix(.6985 .23637 -.23637 .6985 -.93571 1.766)" points="-0.1 -0.42 0.29 2.39 -1.67 0.33 -3.62 2.39 -3.23 -0.42 -6.05 -0.67 -3.62 -2.11 -5.18 -4.47 -2.53 -3.47 -1.67 -6.17 -0.8 -3.47 1.85 -4.47 0.28 -2.11 2.72 -0.67" fill="#3c3489"/><circle cy="-12.657" r="1.6" fill="#3c3489"/><g fill="#afa9ec"><circle cx="13.2" cy="22.95" r="2.5"/><circle cx="-13.2" cy="22.95" r="2.5"/></g><g stroke-linecap="round" stroke-width="2.2"><line y1="9.1158" y2="29.062" stroke="#534ab7"/><line x1="-13.6" x2="13.6" y1="32.59" y2="32.59" stroke="#afa9ec"/><path d="m0 29.1q-9-1.84-13.6 1.23" fill="none" stroke="#534ab7"/><path d="m0 29.1q9-1.84 13.6 1.23" fill="none" stroke="#534ab7"/></g><g stroke="#7f77dd" stroke-linecap="round" stroke-width="1.6"><line x1="-5.3" x2="-6.2" y1="28.18" y2="26.44"/><line x1="-9.4" x2="-10.5" y1="28.8" y2="27.06"/><line x1="5.3" x2="6.2" y1="28.18" y2="26.44"/><line x1="9.4" x2="10.5" y1="28.8" y2="27.06"/></g></g></svg>
